<svg width="375" height="667" viewBox="0 0 375 667" fill="none" xmlns="http://www.w3.org/2000/svg">
<g clip-path="url(#clip0)">
<rect width="375" height="667" fill="#F4F6F7"/>
<g filter="url(#filter0_d)">
<rect x="35" y="240" width="305" height="45" rx="3" fill="white"/>
</g>
<path d="M59.6875 264.391C59.5469 265.594 59.1016 266.523 58.3516 267.18C57.6068 267.831 56.6146 268.156 55.375 268.156C54.0312 268.156 52.9531 267.674 52.1406 266.711C51.3333 265.747 50.9297 264.458 50.9297 262.844V261.75C50.9297 260.693 51.1172 259.763 51.4922 258.961C51.8724 258.159 52.4089 257.544 53.1016 257.117C53.7943 256.685 54.5964 256.469 55.5078 256.469C56.7161 256.469 57.6849 256.807 58.4141 257.484C59.1432 258.156 59.5677 259.089 59.6875 260.281H58.1797C58.0495 259.375 57.7656 258.719 57.3281 258.312C56.8958 257.906 56.2891 257.703 55.5078 257.703C54.5495 257.703 53.7969 258.057 53.25 258.766C52.7083 259.474 52.4375 260.482 52.4375 261.789V262.891C52.4375 264.125 52.6953 265.107 53.2109 265.836C53.7266 266.565 54.4479 266.93 55.375 266.93C56.2083 266.93 56.8464 266.742 57.2891 266.367C57.737 265.987 58.0339 265.328 58.1797 264.391H59.6875ZM62.875 266.82H67.8203V268H61.1094V266.938L65.7734 260.742H61.1797V259.547H67.5859V260.57L62.875 266.82ZM72.8359 268.156C71.6901 268.156 70.7578 267.781 70.0391 267.031C69.3203 266.276 68.9609 265.268 68.9609 264.008V263.742C68.9609 262.904 69.1198 262.156 69.4375 261.5C69.7604 260.839 70.2083 260.323 70.7812 259.953C71.3594 259.578 71.9844 259.391 72.6562 259.391C73.7552 259.391 74.6094 259.753 75.2188 260.477C75.8281 261.201 76.1328 262.237 76.1328 263.586V264.188H70.4062C70.4271 265.021 70.6693 265.695 71.1328 266.211C71.6016 266.721 72.1953 266.977 72.9141 266.977C73.4245 266.977 73.8568 266.872 74.2109 266.664C74.5651 266.456 74.875 266.18 75.1406 265.836L76.0234 266.523C75.3151 267.612 74.2526 268.156 72.8359 268.156ZM72.6562 260.578C72.0729 260.578 71.5833 260.792 71.1875 261.219C70.7917 261.641 70.5469 262.234 70.4531 263H74.6875V262.891C74.6458 262.156 74.4479 261.589 74.0938 261.188C73.7396 260.781 73.2604 260.578 72.6562 260.578ZM81.2031 266.977C81.7188 266.977 82.1693 266.82 82.5547 266.508C82.9401 266.195 83.1536 265.805 83.1953 265.336H84.5625C84.5365 265.82 84.3698 266.281 84.0625 266.719C83.7552 267.156 83.3438 267.505 82.8281 267.766C82.3177 268.026 81.776 268.156 81.2031 268.156C80.0521 268.156 79.1354 267.773 78.4531 267.008C77.776 266.237 77.4375 265.185 77.4375 263.852V263.609C77.4375 262.786 77.5885 262.055 77.8906 261.414C78.1927 260.773 78.625 260.276 79.1875 259.922C79.7552 259.568 80.4245 259.391 81.1953 259.391C82.1432 259.391 82.9297 259.674 83.5547 260.242C84.1849 260.81 84.5208 261.547 84.5625 262.453H83.1953C83.1536 261.906 82.9453 261.458 82.5703 261.109C82.2005 260.755 81.7422 260.578 81.1953 260.578C80.4609 260.578 79.8906 260.844 79.4844 261.375C79.0833 261.901 78.8828 262.664 78.8828 263.664V263.938C78.8828 264.911 79.0833 265.661 79.4844 266.188C79.8854 266.714 80.4583 266.977 81.2031 266.977ZM87.6328 260.57C88.2734 259.784 89.1068 259.391 90.1328 259.391C91.9193 259.391 92.8203 260.398 92.8359 262.414V268H91.3906V262.406C91.3854 261.797 91.2448 261.346 90.9688 261.055C90.6979 260.763 90.2734 260.617 89.6953 260.617C89.2266 260.617 88.8151 260.742 88.4609 260.992C88.1068 261.242 87.8307 261.57 87.6328 261.977V268H86.1875V256H87.6328V260.57Z" fill="#3E4758"/>
<path d="M320.667 260.333C320.146 259.813 319.302 259.813 318.781 260.333L316.121 262.993C314.95 264.165 313.05 264.165 311.879 262.993L309.219 260.333C308.698 259.813 307.854 259.813 307.333 260.333C306.813 260.854 306.813 261.698 307.333 262.219L311.879 266.764C313.05 267.936 314.95 267.936 316.121 266.764L320.667 262.219C321.187 261.698 321.187 260.854 320.667 260.333Z" fill="#085E60"/>
<g filter="url(#filter1_d)">
<g filter="url(#filter2_d)">
<rect width="375" height="195" fill="white"/>
</g>
<path d="M132.477 75.8926H122.172C121.527 75.8926 121.446 75.1979 121.446 74.5533V72.7676C121.446 72.123 121.527 71.2051 122.172 71.2051H132.587C133.751 71.2051 134.843 70.4068 135.033 69.2569C135.275 67.7921 134.147 66.5176 132.719 66.5176C131.686 66.5176 130.807 67.1914 130.492 68.1216C130.338 68.583 129.519 69.2569 129.036 69.2569H126.803C126.086 69.2569 125.68 68.2168 125.812 67.5137C126.442 64.2838 129.298 61.8301 132.711 61.8301C136.893 61.8301 140.233 65.4996 139.684 69.7842C139.237 73.3291 136.044 75.8926 132.477 75.8926ZM122.172 78.2363H146.781C151.154 78.2363 154.603 82.25 153.651 86.7838C153.095 89.4351 150.949 91.5811 148.297 92.1377C144.24 92.9873 140.6 90.314 139.882 86.608C139.743 85.9048 140.379 84.8721 141.089 84.8721H143.441C143.932 84.8721 144.401 85.5459 144.555 86.0073C144.87 86.9375 145.748 87.6113 146.781 87.6113C148.202 87.6113 149.337 86.337 149.096 84.8721C148.905 83.7222 147.821 82.9238 146.649 82.9238H122.172C121.527 82.9238 121.446 82.3407 121.446 81.6962V79.464C121.446 78.8195 121.527 78.2363 122.172 78.2363ZM150.297 75.8926H138.857C140.271 74.6768 142.108 73.0508 142.592 71.2051H150.297C152.238 71.2051 153.812 69.6304 153.812 67.6895C153.812 65.7486 152.238 64.1739 150.297 64.1739C148.986 64.1739 147.858 64.8989 147.25 65.961C147.037 66.3272 145.978 66.964 145.553 66.964H143.441C142.643 66.964 142.321 65.7266 142.592 64.9722C143.895 61.2662 147.755 58.7613 152.069 59.6768C155.087 60.314 157.57 62.7237 158.273 65.7339C159.525 71.0953 155.46 75.8926 150.297 75.8926Z" fill="#FD5C63"/>
<path d="M184.672 83.0076H173.665L171.572 89.2854H164.896L176.239 58.8167H182.056L193.461 89.2854H186.785L184.672 83.0076ZM175.36 77.9224H182.977L179.147 66.5176L175.36 77.9224ZM202.292 89.2854H196.223V66.6431H202.292V89.2854ZM195.867 60.7837C195.867 59.877 196.167 59.1306 196.767 58.5446C197.381 57.9587 198.211 57.6657 199.257 57.6657C200.29 57.6657 201.113 57.9587 201.727 58.5446C202.341 59.1306 202.648 59.877 202.648 60.7837C202.648 61.7045 202.334 62.4578 201.706 63.0438C201.092 63.6297 200.276 63.9228 199.257 63.9228C198.239 63.9228 197.416 63.6297 196.788 63.0438C196.174 62.4578 195.867 61.7045 195.867 60.7837ZM220.016 72.3142C219.194 72.2026 218.468 72.1468 217.84 72.1468C215.552 72.1468 214.053 72.9211 213.341 74.4695V89.2854H207.293V66.6431H213.006L213.173 69.3427C214.387 67.2639 216.069 66.2246 218.217 66.2246C218.887 66.2246 219.514 66.3153 220.1 66.4967L220.016 72.3142ZM229.329 89.2854H223.26V57.1426H229.329V89.2854ZM242.784 80.7266L246.97 66.6431H253.457L244.354 92.8011L243.852 93.9938C242.498 96.9514 240.266 98.4303 237.155 98.4303C236.276 98.4303 235.383 98.2978 234.477 98.0327V93.4498L235.397 93.4707C236.541 93.4707 237.392 93.2963 237.95 92.9476C238.522 92.5987 238.969 92.0198 239.289 91.2106L240.001 89.3482L232.07 66.6431H238.579L242.784 80.7266Z" fill="#525050"/>
<path d="M0 153C0 151.343 1.34315 150 3 150H187.5V195H0V153Z" fill="#6BB7B9"/>
<path d="M32.6221 173.966L32.8682 175.653L33.2285 174.133L35.7598 165.203H37.1836L39.6533 174.133L40.0049 175.68L40.2773 173.957L42.2637 165.203H43.96L40.8574 178H39.3193L36.6826 168.675L36.4805 167.699L36.2783 168.675L33.5449 178H32.0068L28.9131 165.203H30.6006L32.6221 173.966ZM53.0742 172.085H47.5283V176.62H53.9707V178H45.8408V165.203H53.8828V166.592H47.5283V170.705H53.0742V172.085ZM63.1377 174.66H57.7764L56.5723 178H54.832L59.7188 165.203H61.1953L66.0908 178H64.3594L63.1377 174.66ZM58.2861 173.271H62.6367L60.457 167.286L58.2861 173.271ZM75.5127 166.592H71.3994V178H69.7207V166.592H65.6162V165.203H75.5127V166.592ZM87.2461 178H85.5498V172.085H79.0986V178H77.4111V165.203H79.0986V170.705H85.5498V165.203H87.2461V178ZM97.4766 172.085H91.9307V176.62H98.373V178H90.2432V165.203H98.2852V166.592H91.9307V170.705H97.4766V172.085ZM105.167 172.823H102.161V178H100.465V165.203H104.701C106.143 165.203 107.25 165.531 108.023 166.188C108.803 166.844 109.192 167.799 109.192 169.053C109.192 169.85 108.976 170.544 108.542 171.136C108.114 171.728 107.517 172.17 106.749 172.463L109.755 177.895V178H107.944L105.167 172.823ZM102.161 171.443H104.754C105.592 171.443 106.257 171.227 106.749 170.793C107.247 170.359 107.496 169.779 107.496 169.053C107.496 168.262 107.259 167.655 106.784 167.233C106.315 166.812 105.636 166.598 104.745 166.592H102.161V171.443ZM115.433 174.563C115.433 173.948 115.603 173.383 115.942 172.867C116.288 172.352 116.944 171.751 117.911 171.065C117.343 170.374 116.962 169.817 116.769 169.396C116.575 168.974 116.479 168.555 116.479 168.139C116.479 167.166 116.766 166.404 117.34 165.854C117.914 165.303 118.693 165.027 119.678 165.027C120.557 165.027 121.283 165.285 121.857 165.801C122.432 166.311 122.719 166.955 122.719 167.734C122.719 168.25 122.587 168.728 122.323 169.167C122.065 169.601 121.611 170.058 120.961 170.538L120.021 171.232L122.868 174.634C123.267 173.872 123.466 173.025 123.466 172.094H124.934C124.934 173.588 124.573 174.827 123.853 175.812L125.681 178H123.729L122.877 176.989C122.443 177.376 121.934 177.672 121.348 177.877C120.768 178.076 120.176 178.176 119.572 178.176C118.324 178.176 117.322 177.845 116.566 177.183C115.811 176.521 115.433 175.647 115.433 174.563ZM119.572 176.849C120.434 176.849 121.222 176.521 121.937 175.864L118.816 172.129L118.526 172.34C117.548 173.061 117.059 173.802 117.059 174.563C117.059 175.255 117.281 175.809 117.727 176.225C118.178 176.641 118.793 176.849 119.572 176.849ZM118.104 168.086C118.104 168.648 118.45 169.352 119.142 170.195L120.179 169.466C120.577 169.185 120.85 168.918 120.996 168.666C121.143 168.408 121.216 168.098 121.216 167.734C121.216 167.342 121.069 167.017 120.776 166.759C120.483 166.495 120.114 166.363 119.669 166.363C119.188 166.363 118.808 166.527 118.526 166.855C118.245 167.178 118.104 167.588 118.104 168.086ZM138.759 174.66H133.397L132.193 178H130.453L135.34 165.203H136.816L141.712 178H139.98L138.759 174.66ZM133.907 173.271H138.258L136.078 167.286L133.907 173.271ZM153.103 172.015C153.103 173.251 152.906 174.317 152.514 175.214C152.121 176.104 151.57 176.802 150.861 177.306L153.146 179.099L151.995 180.162L149.297 178.018C148.875 178.123 148.43 178.176 147.961 178.176C146.953 178.176 146.06 177.93 145.28 177.438C144.501 176.939 143.895 176.233 143.461 175.319C143.033 174.399 142.813 173.336 142.802 172.129V171.206C142.802 169.976 143.016 168.889 143.443 167.945C143.871 167.002 144.475 166.281 145.254 165.783C146.039 165.279 146.936 165.027 147.943 165.027C148.975 165.027 149.88 165.276 150.659 165.774C151.444 166.272 152.048 166.99 152.47 167.928C152.892 168.859 153.103 169.949 153.103 171.197V172.015ZM151.415 171.188C151.415 169.683 151.113 168.522 150.51 167.708C149.912 166.888 149.057 166.478 147.943 166.478C146.883 166.478 146.045 166.885 145.43 167.699C144.82 168.508 144.507 169.633 144.489 171.074V172.015C144.489 173.479 144.794 174.634 145.403 175.478C146.019 176.321 146.871 176.743 147.961 176.743C149.051 176.743 149.895 176.348 150.492 175.557C151.09 174.76 151.397 173.62 151.415 172.138V171.188ZM157.515 178H155.827V165.203H157.515V178Z" fill="#F9FBFF"/>
<path d="M187.5 150H372C373.657 150 375 151.343 375 153V195H187.5V150Z" fill="white"/>
<path d="M233.989 173.939C233.831 175.293 233.33 176.339 232.486 177.077C231.648 177.81 230.532 178.176 229.137 178.176C227.626 178.176 226.413 177.634 225.499 176.55C224.591 175.466 224.136 174.016 224.136 172.199V170.969C224.136 169.779 224.347 168.733 224.769 167.831C225.197 166.929 225.801 166.237 226.58 165.757C227.359 165.271 228.261 165.027 229.287 165.027C230.646 165.027 231.736 165.408 232.556 166.17C233.377 166.926 233.854 167.975 233.989 169.316H232.293C232.146 168.297 231.827 167.559 231.335 167.102C230.848 166.645 230.166 166.416 229.287 166.416C228.209 166.416 227.362 166.814 226.747 167.611C226.137 168.408 225.833 169.542 225.833 171.013V172.252C225.833 173.641 226.123 174.745 226.703 175.565C227.283 176.386 228.094 176.796 229.137 176.796C230.075 176.796 230.793 176.585 231.291 176.163C231.795 175.735 232.129 174.994 232.293 173.939H233.989ZM246.144 172.015C246.144 173.269 245.933 174.364 245.511 175.302C245.09 176.233 244.492 176.945 243.719 177.438C242.945 177.93 242.043 178.176 241.011 178.176C240.004 178.176 239.11 177.93 238.331 177.438C237.552 176.939 236.945 176.233 236.511 175.319C236.084 174.399 235.864 173.336 235.852 172.129V171.206C235.852 169.976 236.066 168.889 236.494 167.945C236.922 167.002 237.525 166.281 238.304 165.783C239.09 165.279 239.986 165.027 240.994 165.027C242.019 165.027 242.922 165.276 243.701 165.774C244.486 166.267 245.09 166.984 245.511 167.928C245.933 168.865 246.144 169.958 246.144 171.206V172.015ZM244.466 171.188C244.466 169.671 244.161 168.508 243.552 167.699C242.942 166.885 242.09 166.478 240.994 166.478C239.927 166.478 239.087 166.885 238.471 167.699C237.862 168.508 237.549 169.633 237.531 171.074V172.015C237.531 173.485 237.839 174.643 238.454 175.486C239.075 176.324 239.927 176.743 241.011 176.743C242.101 176.743 242.945 176.348 243.543 175.557C244.14 174.76 244.448 173.62 244.466 172.138V171.188ZM250.855 165.203L255.039 175.645L259.222 165.203H261.411V178H259.723V173.017L259.882 167.638L255.68 178H254.388L250.196 167.664L250.363 173.017V178H248.676V165.203H250.855ZM266.078 172.99V178H264.39V165.203H269.11C270.51 165.203 271.606 165.561 272.397 166.275C273.194 166.99 273.593 167.937 273.593 169.114C273.593 170.356 273.203 171.314 272.424 171.988C271.65 172.656 270.54 172.99 269.093 172.99H266.078ZM266.078 171.61H269.11C270.012 171.61 270.704 171.399 271.184 170.978C271.665 170.55 271.905 169.935 271.905 169.132C271.905 168.37 271.665 167.761 271.184 167.304C270.704 166.847 270.045 166.609 269.207 166.592H266.078V171.61ZM281.599 174.66H276.238L275.034 178H273.294L278.18 165.203H279.657L284.552 178H282.821L281.599 174.66ZM276.748 173.271H281.098L278.919 167.286L276.748 173.271ZM290.969 172.823H287.963V178H286.266V165.203H290.503C291.944 165.203 293.052 165.531 293.825 166.188C294.604 166.844 294.994 167.799 294.994 169.053C294.994 169.85 294.777 170.544 294.344 171.136C293.916 171.728 293.318 172.17 292.551 172.463L295.556 177.895V178H293.746L290.969 172.823ZM287.963 171.443H290.555C291.393 171.443 292.058 171.227 292.551 170.793C293.049 170.359 293.298 169.779 293.298 169.053C293.298 168.262 293.06 167.655 292.586 167.233C292.117 166.812 291.437 166.598 290.547 166.592H287.963V171.443ZM304.6 172.085H299.054V176.62H305.497V178H297.367V165.203H305.409V166.592H299.054V170.705H304.6V172.085ZM319.129 174.66H313.767L312.563 178H310.823L315.71 165.203H317.186L322.082 178H320.35L319.129 174.66ZM314.277 173.271H318.628L316.448 167.286L314.277 173.271ZM333.472 172.015C333.472 173.251 333.276 174.317 332.884 175.214C332.491 176.104 331.94 176.802 331.231 177.306L333.516 179.099L332.365 180.162L329.667 178.018C329.245 178.123 328.8 178.176 328.331 178.176C327.323 178.176 326.429 177.93 325.65 177.438C324.871 176.939 324.264 176.233 323.831 175.319C323.403 174.399 323.183 173.336 323.172 172.129V171.206C323.172 169.976 323.385 168.889 323.813 167.945C324.241 167.002 324.844 166.281 325.624 165.783C326.409 165.279 327.305 165.027 328.313 165.027C329.344 165.027 330.25 165.276 331.029 165.774C331.814 166.272 332.418 166.99 332.84 167.928C333.261 168.859 333.472 169.949 333.472 171.197V172.015ZM331.785 171.188C331.785 169.683 331.483 168.522 330.88 167.708C330.282 166.888 329.427 166.478 328.313 166.478C327.253 166.478 326.415 166.885 325.8 167.699C325.19 168.508 324.877 169.633 324.859 171.074V172.015C324.859 173.479 325.164 174.634 325.773 175.478C326.388 176.321 327.241 176.743 328.331 176.743C329.421 176.743 330.264 176.348 330.862 175.557C331.46 174.76 331.767 173.62 331.785 172.138V171.188ZM337.885 178H336.197V165.203H337.885V178Z" fill="#439EA1"/>
</g>
<rect x="290" y="608" width="50" height="24" rx="12" fill="#DFE5ED"/>
<circle cx="303" cy="620" r="10" fill="#828C9A"/>
<path d="M221.539 625V616.469H223.924C224.623 616.469 225.25 616.629 225.805 616.949C226.359 617.266 226.791 617.721 227.1 618.314C227.412 618.908 227.568 619.584 227.568 620.342V621.127C227.568 621.889 227.414 622.564 227.105 623.154C226.797 623.744 226.361 624.199 225.799 624.52C225.24 624.84 224.598 625 223.871 625H221.539ZM222.26 617.084V624.391H223.877C224.775 624.391 225.496 624.094 226.039 623.5C226.582 622.902 226.854 622.096 226.854 621.08V620.33C226.854 619.35 226.586 618.564 226.051 617.975C225.516 617.385 224.811 617.088 223.936 617.084H222.26ZM233.879 622.609H230.006L229.127 625H228.371L231.6 616.469H232.285L235.514 625H234.764L233.879 622.609ZM230.229 621.994H233.65L231.939 617.348L230.229 621.994ZM239.961 621.449H237.482V625H236.756V616.469H239.527C240.438 616.469 241.148 616.689 241.66 617.131C242.172 617.572 242.428 618.189 242.428 618.982C242.428 619.529 242.268 620.012 241.947 620.43C241.627 620.848 241.197 621.137 240.658 621.297L242.791 624.924V625H242.023L239.961 621.449ZM237.482 620.834H239.691C240.297 620.834 240.783 620.662 241.15 620.318C241.518 619.975 241.701 619.529 241.701 618.982C241.701 618.381 241.51 617.914 241.127 617.582C240.744 617.25 240.207 617.084 239.516 617.084H237.482V620.834ZM246.312 620.764L245.111 621.947V625H244.391V616.469H245.111V621.068L249.482 616.469H250.391L246.816 620.266L250.666 625H249.787L246.312 620.764ZM255.834 616.469L258.98 623.998L262.139 616.469H263.1V625H262.379V621.285L262.438 617.477L259.262 625H258.705L255.541 617.506L255.6 621.262V625H254.879V616.469H255.834ZM271.566 621.197C271.566 621.982 271.43 622.672 271.156 623.266C270.887 623.859 270.5 624.316 269.996 624.637C269.492 624.957 268.91 625.117 268.25 625.117C267.254 625.117 266.449 624.762 265.836 624.051C265.223 623.336 264.916 622.373 264.916 621.162V620.283C264.916 619.506 265.053 618.818 265.326 618.221C265.604 617.619 265.994 617.158 266.498 616.838C267.002 616.514 267.582 616.352 268.238 616.352C268.895 616.352 269.473 616.51 269.973 616.826C270.477 617.143 270.865 617.59 271.139 618.168C271.412 618.746 271.555 619.416 271.566 620.178V621.197ZM270.846 620.271C270.846 619.244 270.613 618.439 270.148 617.857C269.684 617.275 269.047 616.984 268.238 616.984C267.445 616.984 266.812 617.277 266.34 617.863C265.871 618.445 265.637 619.26 265.637 620.307V621.197C265.637 622.209 265.871 623.012 266.34 623.605C266.809 624.195 267.445 624.49 268.25 624.49C269.066 624.49 269.703 624.199 270.16 623.617C270.617 623.031 270.846 622.217 270.846 621.174V620.271ZM273.383 625V616.469H275.768C276.467 616.469 277.094 616.629 277.648 616.949C278.203 617.266 278.635 617.721 278.943 618.314C279.256 618.908 279.412 619.584 279.412 620.342V621.127C279.412 621.889 279.258 622.564 278.949 623.154C278.641 623.744 278.205 624.199 277.643 624.52C277.084 624.84 276.441 625 275.715 625H273.383ZM274.104 617.084V624.391H275.721C276.619 624.391 277.34 624.094 277.883 623.5C278.426 622.902 278.697 622.096 278.697 621.08V620.33C278.697 619.35 278.43 618.564 277.895 617.975C277.359 617.385 276.654 617.088 275.779 617.084H274.104ZM285.957 620.91H281.967V624.391H286.555V625H281.246V616.469H286.525V617.084H281.967V620.301H285.957V620.91Z" fill="#3E4753"/>
<g filter="url(#filter3_d)">
<rect x="35" y="284" width="305" height="145" rx="3" fill="white"/>
</g>
<path d="M60.0703 337.68C60.0703 338.794 59.8828 339.768 59.5078 340.602C59.1328 341.43 58.6016 342.062 57.9141 342.5C57.2266 342.938 56.4245 343.156 55.5078 343.156C54.612 343.156 53.8177 342.938 53.125 342.5C52.4323 342.057 51.8932 341.43 51.5078 340.617C51.1276 339.799 50.9323 338.854 50.9219 337.781V336.961C50.9219 335.867 51.112 334.901 51.4922 334.062C51.8724 333.224 52.4089 332.583 53.1016 332.141C53.7995 331.693 54.5964 331.469 55.4922 331.469C56.4036 331.469 57.2057 331.69 57.8984 332.133C58.5964 332.57 59.1328 333.208 59.5078 334.047C59.8828 334.88 60.0703 335.852 60.0703 336.961V337.68ZM58.5781 336.945C58.5781 335.596 58.3073 334.562 57.7656 333.844C57.224 333.12 56.4661 332.758 55.4922 332.758C54.5443 332.758 53.7969 333.12 53.25 333.844C52.7083 334.562 52.4297 335.562 52.4141 336.844V337.68C52.4141 338.987 52.6875 340.016 53.2344 340.766C53.7865 341.51 54.5443 341.883 55.5078 341.883C56.4766 341.883 57.2266 341.531 57.7578 340.828C58.2891 340.12 58.5625 339.107 58.5781 337.789V336.945ZM63.6641 343H62.2188V331H63.6641V343ZM65.6016 338.695C65.6016 337.867 65.763 337.122 66.0859 336.461C66.4141 335.799 66.8672 335.289 67.4453 334.93C68.0286 334.57 68.6927 334.391 69.4375 334.391C70.5885 334.391 71.5182 334.789 72.2266 335.586C72.9401 336.383 73.2969 337.443 73.2969 338.766V338.867C73.2969 339.69 73.138 340.43 72.8203 341.086C72.5078 341.737 72.0573 342.245 71.4688 342.609C70.8854 342.974 70.2135 343.156 69.4531 343.156C68.3073 343.156 67.3776 342.758 66.6641 341.961C65.9557 341.164 65.6016 340.109 65.6016 338.797V338.695ZM67.0547 338.867C67.0547 339.805 67.2708 340.557 67.7031 341.125C68.1406 341.693 68.724 341.977 69.4531 341.977C70.1875 341.977 70.7708 341.69 71.2031 341.117C71.6354 340.539 71.8516 339.732 71.8516 338.695C71.8516 337.768 71.6302 337.018 71.1875 336.445C70.75 335.867 70.1667 335.578 69.4375 335.578C68.724 335.578 68.1484 335.862 67.7109 336.43C67.2734 336.997 67.0547 337.81 67.0547 338.867ZM76.4688 334.547L76.5078 335.484C77.1276 334.755 77.9635 334.391 79.0156 334.391C80.1979 334.391 81.0026 334.844 81.4297 335.75C81.7109 335.344 82.0755 335.016 82.5234 334.766C82.9766 334.516 83.5104 334.391 84.125 334.391C85.9792 334.391 86.9219 335.372 86.9531 337.336V343H85.5078V337.422C85.5078 336.818 85.3698 336.367 85.0938 336.07C84.8177 335.768 84.3542 335.617 83.7031 335.617C83.1667 335.617 82.7214 335.779 82.3672 336.102C82.013 336.419 81.8073 336.849 81.75 337.391V343H80.2969V337.461C80.2969 336.232 79.6953 335.617 78.4922 335.617C77.5443 335.617 76.8958 336.021 76.5469 336.828V343H75.1016V334.547H76.4688ZM88.7578 338.695C88.7578 337.867 88.9193 337.122 89.2422 336.461C89.5703 335.799 90.0234 335.289 90.6016 334.93C91.1849 334.57 91.849 334.391 92.5938 334.391C93.7448 334.391 94.6745 334.789 95.3828 335.586C96.0964 336.383 96.4531 337.443 96.4531 338.766V338.867C96.4531 339.69 96.2943 340.43 95.9766 341.086C95.6641 341.737 95.2135 342.245 94.625 342.609C94.0417 342.974 93.3698 343.156 92.6094 343.156C91.4635 343.156 90.5339 342.758 89.8203 341.961C89.112 341.164 88.7578 340.109 88.7578 338.797V338.695ZM90.2109 338.867C90.2109 339.805 90.4271 340.557 90.8594 341.125C91.2969 341.693 91.8802 341.977 92.6094 341.977C93.3438 341.977 93.9271 341.69 94.3594 341.117C94.7917 340.539 95.0078 339.732 95.0078 338.695C95.0078 337.768 94.7865 337.018 94.3438 336.445C93.9062 335.867 93.3229 335.578 92.5938 335.578C91.8802 335.578 91.3047 335.862 90.8672 336.43C90.4297 336.997 90.2109 337.81 90.2109 338.867ZM103.484 342.164C102.922 342.826 102.096 343.156 101.008 343.156C100.107 343.156 99.4193 342.896 98.9453 342.375C98.4766 341.849 98.2396 341.073 98.2344 340.047V334.547H99.6797V340.008C99.6797 341.289 100.201 341.93 101.242 341.93C102.346 341.93 103.081 341.518 103.445 340.695V334.547H104.891V343H103.516L103.484 342.164ZM110.484 341.977C111 341.977 111.451 341.82 111.836 341.508C112.221 341.195 112.435 340.805 112.477 340.336H113.844C113.818 340.82 113.651 341.281 113.344 341.719C113.036 342.156 112.625 342.505 112.109 342.766C111.599 343.026 111.057 343.156 110.484 343.156C109.333 343.156 108.417 342.773 107.734 342.008C107.057 341.237 106.719 340.185 106.719 338.852V338.609C106.719 337.786 106.87 337.055 107.172 336.414C107.474 335.773 107.906 335.276 108.469 334.922C109.036 334.568 109.706 334.391 110.477 334.391C111.424 334.391 112.211 334.674 112.836 335.242C113.466 335.81 113.802 336.547 113.844 337.453H112.477C112.435 336.906 112.227 336.458 111.852 336.109C111.482 335.755 111.023 335.578 110.477 335.578C109.742 335.578 109.172 335.844 108.766 336.375C108.365 336.901 108.164 337.664 108.164 338.664V338.938C108.164 339.911 108.365 340.661 108.766 341.188C109.167 341.714 109.74 341.977 110.484 341.977ZM115.422 345.266L114.602 344.703C115.091 344.021 115.346 343.318 115.367 342.594V341.289H116.781V342.422C116.781 342.948 116.651 343.474 116.391 344C116.135 344.526 115.812 344.948 115.422 345.266ZM131.172 339.391C131.031 340.594 130.586 341.523 129.836 342.18C129.091 342.831 128.099 343.156 126.859 343.156C125.516 343.156 124.438 342.674 123.625 341.711C122.818 340.747 122.414 339.458 122.414 337.844V336.75C122.414 335.693 122.602 334.763 122.977 333.961C123.357 333.159 123.893 332.544 124.586 332.117C125.279 331.685 126.081 331.469 126.992 331.469C128.201 331.469 129.169 331.807 129.898 332.484C130.628 333.156 131.052 334.089 131.172 335.281H129.664C129.534 334.375 129.25 333.719 128.812 333.312C128.38 332.906 127.773 332.703 126.992 332.703C126.034 332.703 125.281 333.057 124.734 333.766C124.193 334.474 123.922 335.482 123.922 336.789V337.891C123.922 339.125 124.18 340.107 124.695 340.836C125.211 341.565 125.932 341.93 126.859 341.93C127.693 341.93 128.331 341.742 128.773 341.367C129.221 340.987 129.518 340.328 129.664 339.391H131.172ZM134.359 341.82H139.305V343H132.594V341.938L137.258 335.742H132.664V334.547H139.07V335.57L134.359 341.82ZM144.32 343.156C143.174 343.156 142.242 342.781 141.523 342.031C140.805 341.276 140.445 340.268 140.445 339.008V338.742C140.445 337.904 140.604 337.156 140.922 336.5C141.245 335.839 141.693 335.323 142.266 334.953C142.844 334.578 143.469 334.391 144.141 334.391C145.24 334.391 146.094 334.753 146.703 335.477C147.312 336.201 147.617 337.237 147.617 338.586V339.188H141.891C141.911 340.021 142.154 340.695 142.617 341.211C143.086 341.721 143.68 341.977 144.398 341.977C144.909 341.977 145.341 341.872 145.695 341.664C146.049 341.456 146.359 341.18 146.625 340.836L147.508 341.523C146.799 342.612 145.737 343.156 144.32 343.156ZM144.141 335.578C143.557 335.578 143.068 335.792 142.672 336.219C142.276 336.641 142.031 337.234 141.938 338H146.172V337.891C146.13 337.156 145.932 336.589 145.578 336.188C145.224 335.781 144.745 335.578 144.141 335.578ZM152.688 341.977C153.203 341.977 153.654 341.82 154.039 341.508C154.424 341.195 154.638 340.805 154.68 340.336H156.047C156.021 340.82 155.854 341.281 155.547 341.719C155.24 342.156 154.828 342.505 154.312 342.766C153.802 343.026 153.26 343.156 152.688 343.156C151.536 343.156 150.62 342.773 149.938 342.008C149.26 341.237 148.922 340.185 148.922 338.852V338.609C148.922 337.786 149.073 337.055 149.375 336.414C149.677 335.773 150.109 335.276 150.672 334.922C151.24 334.568 151.909 334.391 152.68 334.391C153.628 334.391 154.414 334.674 155.039 335.242C155.669 335.81 156.005 336.547 156.047 337.453H154.68C154.638 336.906 154.43 336.458 154.055 336.109C153.685 335.755 153.227 335.578 152.68 335.578C151.945 335.578 151.375 335.844 150.969 336.375C150.568 336.901 150.367 337.664 150.367 338.664V338.938C150.367 339.911 150.568 340.661 150.969 341.188C151.37 341.714 151.943 341.977 152.688 341.977ZM159.117 335.57C159.758 334.784 160.591 334.391 161.617 334.391C163.404 334.391 164.305 335.398 164.32 337.414V343H162.875V337.406C162.87 336.797 162.729 336.346 162.453 336.055C162.182 335.763 161.758 335.617 161.18 335.617C160.711 335.617 160.299 335.742 159.945 335.992C159.591 336.242 159.315 336.57 159.117 336.977V343H157.672V331H159.117V335.57ZM174.852 338.398H172.18V343H170.672V331.625H174.438C175.719 331.625 176.703 331.917 177.391 332.5C178.083 333.083 178.43 333.932 178.43 335.047C178.43 335.755 178.237 336.372 177.852 336.898C177.471 337.424 176.94 337.818 176.258 338.078L178.93 342.906V343H177.32L174.852 338.398ZM172.18 337.172H174.484C175.229 337.172 175.82 336.979 176.258 336.594C176.701 336.208 176.922 335.693 176.922 335.047C176.922 334.344 176.711 333.805 176.289 333.43C175.872 333.055 175.268 332.865 174.477 332.859H172.18V337.172ZM183.82 343.156C182.674 343.156 181.742 342.781 181.023 342.031C180.305 341.276 179.945 340.268 179.945 339.008V338.742C179.945 337.904 180.104 337.156 180.422 336.5C180.745 335.839 181.193 335.323 181.766 334.953C182.344 334.578 182.969 334.391 183.641 334.391C184.74 334.391 185.594 334.753 186.203 335.477C186.812 336.201 187.117 337.237 187.117 338.586V339.188H181.391C181.411 340.021 181.654 340.695 182.117 341.211C182.586 341.721 183.18 341.977 183.898 341.977C184.409 341.977 184.841 341.872 185.195 341.664C185.549 341.456 185.859 341.18 186.125 340.836L187.008 341.523C186.299 342.612 185.237 343.156 183.82 343.156ZM183.641 335.578C183.057 335.578 182.568 335.792 182.172 336.219C181.776 336.641 181.531 337.234 181.438 338H185.672V337.891C185.63 337.156 185.432 336.589 185.078 336.188C184.724 335.781 184.245 335.578 183.641 335.578ZM195.938 338.867C195.938 340.154 195.643 341.19 195.055 341.977C194.466 342.763 193.669 343.156 192.664 343.156C191.638 343.156 190.831 342.831 190.242 342.18V346.25H188.797V334.547H190.117L190.188 335.484C190.776 334.755 191.594 334.391 192.641 334.391C193.656 334.391 194.458 334.773 195.047 335.539C195.641 336.305 195.938 337.37 195.938 338.734V338.867ZM194.492 338.703C194.492 337.75 194.289 336.997 193.883 336.445C193.477 335.893 192.919 335.617 192.211 335.617C191.336 335.617 190.68 336.005 190.242 336.781V340.82C190.674 341.591 191.336 341.977 192.227 341.977C192.919 341.977 193.469 341.703 193.875 341.156C194.286 340.604 194.492 339.786 194.492 338.703ZM203 342.164C202.438 342.826 201.612 343.156 200.523 343.156C199.622 343.156 198.935 342.896 198.461 342.375C197.992 341.849 197.755 341.073 197.75 340.047V334.547H199.195V340.008C199.195 341.289 199.716 341.93 200.758 341.93C201.862 341.93 202.596 341.518 202.961 340.695V334.547H204.406V343H203.031L203 342.164ZM213.766 338.867C213.766 340.159 213.469 341.198 212.875 341.984C212.281 342.766 211.484 343.156 210.484 343.156C209.417 343.156 208.591 342.779 208.008 342.023L207.938 343H206.609V331H208.055V335.477C208.638 334.753 209.443 334.391 210.469 334.391C211.495 334.391 212.299 334.779 212.883 335.555C213.471 336.331 213.766 337.393 213.766 338.742V338.867ZM212.32 338.703C212.32 337.719 212.13 336.958 211.75 336.422C211.37 335.885 210.823 335.617 210.109 335.617C209.156 335.617 208.471 336.06 208.055 336.945V340.602C208.497 341.487 209.188 341.93 210.125 341.93C210.818 341.93 211.357 341.661 211.742 341.125C212.128 340.589 212.32 339.781 212.32 338.703ZM217.164 343H215.719V331H217.164V343ZM221.055 343H219.609V334.547H221.055V343ZM219.492 332.305C219.492 332.07 219.562 331.872 219.703 331.711C219.849 331.549 220.062 331.469 220.344 331.469C220.625 331.469 220.839 331.549 220.984 331.711C221.13 331.872 221.203 332.07 221.203 332.305C221.203 332.539 221.13 332.734 220.984 332.891C220.839 333.047 220.625 333.125 220.344 333.125C220.062 333.125 219.849 333.047 219.703 332.891C219.562 332.734 219.492 332.539 219.492 332.305ZM226.766 341.977C227.281 341.977 227.732 341.82 228.117 341.508C228.503 341.195 228.716 340.805 228.758 340.336H230.125C230.099 340.82 229.932 341.281 229.625 341.719C229.318 342.156 228.906 342.505 228.391 342.766C227.88 343.026 227.339 343.156 226.766 343.156C225.615 343.156 224.698 342.773 224.016 342.008C223.339 341.237 223 340.185 223 338.852V338.609C223 337.786 223.151 337.055 223.453 336.414C223.755 335.773 224.188 335.276 224.75 334.922C225.318 334.568 225.987 334.391 226.758 334.391C227.706 334.391 228.492 334.674 229.117 335.242C229.747 335.81 230.083 336.547 230.125 337.453H228.758C228.716 336.906 228.508 336.458 228.133 336.109C227.763 335.755 227.305 335.578 226.758 335.578C226.023 335.578 225.453 335.844 225.047 336.375C224.646 336.901 224.445 337.664 224.445 338.664V338.938C224.445 339.911 224.646 340.661 225.047 341.188C225.448 341.714 226.021 341.977 226.766 341.977Z" fill="#ACB6C4"/>
<path d="M52.8203 406.547V411H51.3203V399.625H55.5156C56.7604 399.625 57.7344 399.943 58.4375 400.578C59.1458 401.214 59.5 402.055 59.5 403.102C59.5 404.206 59.1536 405.057 58.4609 405.656C57.7734 406.25 56.7865 406.547 55.5 406.547H52.8203ZM52.8203 405.32H55.5156C56.3177 405.32 56.9323 405.133 57.3594 404.758C57.7865 404.378 58 403.831 58 403.117C58 402.44 57.7865 401.898 57.3594 401.492C56.9323 401.086 56.3464 400.875 55.6016 400.859H52.8203V405.32ZM65.2734 403.844C65.0547 403.807 64.8177 403.789 64.5625 403.789C63.6146 403.789 62.9714 404.193 62.6328 405V411H61.1875V402.547H62.5938L62.6172 403.523C63.0911 402.768 63.763 402.391 64.6328 402.391C64.9141 402.391 65.1276 402.427 65.2734 402.5V403.844ZM71.5156 411C71.4323 410.833 71.3646 410.536 71.3125 410.109C70.6406 410.807 69.8385 411.156 68.9062 411.156C68.0729 411.156 67.388 410.922 66.8516 410.453C66.3203 409.979 66.0547 409.38 66.0547 408.656C66.0547 407.776 66.388 407.094 67.0547 406.609C67.7266 406.12 68.6693 405.875 69.8828 405.875H71.2891V405.211C71.2891 404.706 71.138 404.305 70.8359 404.008C70.5339 403.706 70.0885 403.555 69.5 403.555C68.9844 403.555 68.5521 403.685 68.2031 403.945C67.8542 404.206 67.6797 404.521 67.6797 404.891H66.2266C66.2266 404.469 66.375 404.062 66.6719 403.672C66.974 403.276 67.3802 402.964 67.8906 402.734C68.4062 402.505 68.9714 402.391 69.5859 402.391C70.5599 402.391 71.3229 402.635 71.875 403.125C72.4271 403.609 72.7135 404.279 72.7344 405.133V409.023C72.7344 409.799 72.8333 410.417 73.0312 410.875V411H71.5156ZM69.1172 409.898C69.5703 409.898 70 409.781 70.4062 409.547C70.8125 409.312 71.1068 409.008 71.2891 408.633V406.898H70.1562C68.3854 406.898 67.5 407.417 67.5 408.453C67.5 408.906 67.651 409.26 67.9531 409.516C68.2552 409.771 68.6432 409.898 69.1172 409.898ZM74.6562 406.703C74.6562 405.385 74.9609 404.339 75.5703 403.562C76.1797 402.781 76.987 402.391 77.9922 402.391C79.0234 402.391 79.8281 402.755 80.4062 403.484L80.4766 402.547H81.7969V410.797C81.7969 411.891 81.4714 412.753 80.8203 413.383C80.1745 414.013 79.3047 414.328 78.2109 414.328C77.6016 414.328 77.0052 414.198 76.4219 413.938C75.8385 413.677 75.3932 413.32 75.0859 412.867L75.8359 412C76.4557 412.766 77.2135 413.148 78.1094 413.148C78.8125 413.148 79.3594 412.951 79.75 412.555C80.1458 412.159 80.3438 411.602 80.3438 410.883V410.156C79.7656 410.823 78.9766 411.156 77.9766 411.156C76.987 411.156 76.1849 410.758 75.5703 409.961C74.9609 409.164 74.6562 408.078 74.6562 406.703ZM76.1094 406.867C76.1094 407.82 76.3047 408.57 76.6953 409.117C77.0859 409.659 77.6328 409.93 78.3359 409.93C79.2474 409.93 79.9167 409.516 80.3438 408.688V404.828C79.901 404.021 79.237 403.617 78.3516 403.617C77.6484 403.617 77.099 403.891 76.7031 404.438C76.3073 404.984 76.1094 405.794 76.1094 406.867ZM89.2031 410.164C88.6406 410.826 87.8151 411.156 86.7266 411.156C85.8255 411.156 85.138 410.896 84.6641 410.375C84.1953 409.849 83.9583 409.073 83.9531 408.047V402.547H85.3984V408.008C85.3984 409.289 85.9193 409.93 86.9609 409.93C88.0651 409.93 88.7995 409.518 89.1641 408.695V402.547H90.6094V411H89.2344L89.2031 410.164ZM96.3203 411.156C95.1745 411.156 94.2422 410.781 93.5234 410.031C92.8047 409.276 92.4453 408.268 92.4453 407.008V406.742C92.4453 405.904 92.6042 405.156 92.9219 404.5C93.2448 403.839 93.6927 403.323 94.2656 402.953C94.8438 402.578 95.4688 402.391 96.1406 402.391C97.2396 402.391 98.0938 402.753 98.7031 403.477C99.3125 404.201 99.6172 405.237 99.6172 406.586V407.188H93.8906C93.9115 408.021 94.1536 408.695 94.6172 409.211C95.0859 409.721 95.6797 409.977 96.3984 409.977C96.9089 409.977 97.3411 409.872 97.6953 409.664C98.0495 409.456 98.3594 409.18 98.625 408.836L99.5078 409.523C98.7995 410.612 97.737 411.156 96.3203 411.156ZM96.1406 403.578C95.5573 403.578 95.0677 403.792 94.6719 404.219C94.276 404.641 94.0312 405.234 93.9375 406H98.1719V405.891C98.1302 405.156 97.9323 404.589 97.5781 404.188C97.224 403.781 96.7448 403.578 96.1406 403.578ZM101.25 413.266L100.43 412.703C100.919 412.021 101.174 411.318 101.195 410.594V409.289H102.609V410.422C102.609 410.948 102.479 411.474 102.219 412C101.964 412.526 101.641 412.948 101.25 413.266ZM117 407.391C116.859 408.594 116.414 409.523 115.664 410.18C114.919 410.831 113.927 411.156 112.688 411.156C111.344 411.156 110.266 410.674 109.453 409.711C108.646 408.747 108.242 407.458 108.242 405.844V404.75C108.242 403.693 108.43 402.763 108.805 401.961C109.185 401.159 109.721 400.544 110.414 400.117C111.107 399.685 111.909 399.469 112.82 399.469C114.029 399.469 114.997 399.807 115.727 400.484C116.456 401.156 116.88 402.089 117 403.281H115.492C115.362 402.375 115.078 401.719 114.641 401.312C114.208 400.906 113.602 400.703 112.82 400.703C111.862 400.703 111.109 401.057 110.562 401.766C110.021 402.474 109.75 403.482 109.75 404.789V405.891C109.75 407.125 110.008 408.107 110.523 408.836C111.039 409.565 111.76 409.93 112.688 409.93C113.521 409.93 114.159 409.742 114.602 409.367C115.049 408.987 115.346 408.328 115.492 407.391H117ZM120.188 409.82H125.133V411H118.422V409.938L123.086 403.742H118.492V402.547H124.898V403.57L120.188 409.82ZM130.148 411.156C129.003 411.156 128.07 410.781 127.352 410.031C126.633 409.276 126.273 408.268 126.273 407.008V406.742C126.273 405.904 126.432 405.156 126.75 404.5C127.073 403.839 127.521 403.323 128.094 402.953C128.672 402.578 129.297 402.391 129.969 402.391C131.068 402.391 131.922 402.753 132.531 403.477C133.141 404.201 133.445 405.237 133.445 406.586V407.188H127.719C127.74 408.021 127.982 408.695 128.445 409.211C128.914 409.721 129.508 409.977 130.227 409.977C130.737 409.977 131.169 409.872 131.523 409.664C131.878 409.456 132.188 409.18 132.453 408.836L133.336 409.523C132.628 410.612 131.565 411.156 130.148 411.156ZM129.969 403.578C129.385 403.578 128.896 403.792 128.5 404.219C128.104 404.641 127.859 405.234 127.766 406H132V405.891C131.958 405.156 131.76 404.589 131.406 404.188C131.052 403.781 130.573 403.578 129.969 403.578ZM138.516 409.977C139.031 409.977 139.482 409.82 139.867 409.508C140.253 409.195 140.466 408.805 140.508 408.336H141.875C141.849 408.82 141.682 409.281 141.375 409.719C141.068 410.156 140.656 410.505 140.141 410.766C139.63 411.026 139.089 411.156 138.516 411.156C137.365 411.156 136.448 410.773 135.766 410.008C135.089 409.237 134.75 408.185 134.75 406.852V406.609C134.75 405.786 134.901 405.055 135.203 404.414C135.505 403.773 135.938 403.276 136.5 402.922C137.068 402.568 137.737 402.391 138.508 402.391C139.456 402.391 140.242 402.674 140.867 403.242C141.497 403.81 141.833 404.547 141.875 405.453H140.508C140.466 404.906 140.258 404.458 139.883 404.109C139.513 403.755 139.055 403.578 138.508 403.578C137.773 403.578 137.203 403.844 136.797 404.375C136.396 404.901 136.195 405.664 136.195 406.664V406.938C136.195 407.911 136.396 408.661 136.797 409.188C137.198 409.714 137.771 409.977 138.516 409.977ZM144.945 403.57C145.586 402.784 146.419 402.391 147.445 402.391C149.232 402.391 150.133 403.398 150.148 405.414V411H148.703V405.406C148.698 404.797 148.557 404.346 148.281 404.055C148.01 403.763 147.586 403.617 147.008 403.617C146.539 403.617 146.128 403.742 145.773 403.992C145.419 404.242 145.143 404.57 144.945 404.977V411H143.5V399H144.945V403.57ZM160.68 406.398H158.008V411H156.5V399.625H160.266C161.547 399.625 162.531 399.917 163.219 400.5C163.911 401.083 164.258 401.932 164.258 403.047C164.258 403.755 164.065 404.372 163.68 404.898C163.299 405.424 162.768 405.818 162.086 406.078L164.758 410.906V411H163.148L160.68 406.398ZM158.008 405.172H160.312C161.057 405.172 161.648 404.979 162.086 404.594C162.529 404.208 162.75 403.693 162.75 403.047C162.75 402.344 162.539 401.805 162.117 401.43C161.701 401.055 161.096 400.865 160.305 400.859H158.008V405.172ZM169.648 411.156C168.503 411.156 167.57 410.781 166.852 410.031C166.133 409.276 165.773 408.268 165.773 407.008V406.742C165.773 405.904 165.932 405.156 166.25 404.5C166.573 403.839 167.021 403.323 167.594 402.953C168.172 402.578 168.797 402.391 169.469 402.391C170.568 402.391 171.422 402.753 172.031 403.477C172.641 404.201 172.945 405.237 172.945 406.586V407.188H167.219C167.24 408.021 167.482 408.695 167.945 409.211C168.414 409.721 169.008 409.977 169.727 409.977C170.237 409.977 170.669 409.872 171.023 409.664C171.378 409.456 171.688 409.18 171.953 408.836L172.836 409.523C172.128 410.612 171.065 411.156 169.648 411.156ZM169.469 403.578C168.885 403.578 168.396 403.792 168 404.219C167.604 404.641 167.359 405.234 167.266 406H171.5V405.891C171.458 405.156 171.26 404.589 170.906 404.188C170.552 403.781 170.073 403.578 169.469 403.578ZM181.766 406.867C181.766 408.154 181.471 409.19 180.883 409.977C180.294 410.763 179.497 411.156 178.492 411.156C177.466 411.156 176.659 410.831 176.07 410.18V414.25H174.625V402.547H175.945L176.016 403.484C176.604 402.755 177.422 402.391 178.469 402.391C179.484 402.391 180.286 402.773 180.875 403.539C181.469 404.305 181.766 405.37 181.766 406.734V406.867ZM180.32 406.703C180.32 405.75 180.117 404.997 179.711 404.445C179.305 403.893 178.747 403.617 178.039 403.617C177.164 403.617 176.508 404.005 176.07 404.781V408.82C176.503 409.591 177.164 409.977 178.055 409.977C178.747 409.977 179.297 409.703 179.703 409.156C180.115 408.604 180.32 407.786 180.32 406.703ZM188.828 410.164C188.266 410.826 187.44 411.156 186.352 411.156C185.451 411.156 184.763 410.896 184.289 410.375C183.82 409.849 183.583 409.073 183.578 408.047V402.547H185.023V408.008C185.023 409.289 185.544 409.93 186.586 409.93C187.69 409.93 188.424 409.518 188.789 408.695V402.547H190.234V411H188.859L188.828 410.164ZM199.594 406.867C199.594 408.159 199.297 409.198 198.703 409.984C198.109 410.766 197.312 411.156 196.312 411.156C195.245 411.156 194.419 410.779 193.836 410.023L193.766 411H192.438V399H193.883V403.477C194.466 402.753 195.271 402.391 196.297 402.391C197.323 402.391 198.128 402.779 198.711 403.555C199.299 404.331 199.594 405.393 199.594 406.742V406.867ZM198.148 406.703C198.148 405.719 197.958 404.958 197.578 404.422C197.198 403.885 196.651 403.617 195.938 403.617C194.984 403.617 194.299 404.06 193.883 404.945V408.602C194.326 409.487 195.016 409.93 195.953 409.93C196.646 409.93 197.185 409.661 197.57 409.125C197.956 408.589 198.148 407.781 198.148 406.703ZM202.992 411H201.547V399H202.992V411ZM206.883 411H205.438V402.547H206.883V411ZM205.32 400.305C205.32 400.07 205.391 399.872 205.531 399.711C205.677 399.549 205.891 399.469 206.172 399.469C206.453 399.469 206.667 399.549 206.812 399.711C206.958 399.872 207.031 400.07 207.031 400.305C207.031 400.539 206.958 400.734 206.812 400.891C206.667 401.047 206.453 401.125 206.172 401.125C205.891 401.125 205.677 401.047 205.531 400.891C205.391 400.734 205.32 400.539 205.32 400.305ZM212.594 409.977C213.109 409.977 213.56 409.82 213.945 409.508C214.331 409.195 214.544 408.805 214.586 408.336H215.953C215.927 408.82 215.76 409.281 215.453 409.719C215.146 410.156 214.734 410.505 214.219 410.766C213.708 411.026 213.167 411.156 212.594 411.156C211.443 411.156 210.526 410.773 209.844 410.008C209.167 409.237 208.828 408.185 208.828 406.852V406.609C208.828 405.786 208.979 405.055 209.281 404.414C209.583 403.773 210.016 403.276 210.578 402.922C211.146 402.568 211.815 402.391 212.586 402.391C213.534 402.391 214.32 402.674 214.945 403.242C215.576 403.81 215.911 404.547 215.953 405.453H214.586C214.544 404.906 214.336 404.458 213.961 404.109C213.591 403.755 213.133 403.578 212.586 403.578C211.852 403.578 211.281 403.844 210.875 404.375C210.474 404.901 210.273 405.664 210.273 406.664V406.938C210.273 407.911 210.474 408.661 210.875 409.188C211.276 409.714 211.849 409.977 212.594 409.977Z" fill="#ACB6C4"/>
<path d="M60.0703 371.68C60.0703 372.794 59.8828 373.768 59.5078 374.602C59.1328 375.43 58.6016 376.062 57.9141 376.5C57.2266 376.938 56.4245 377.156 55.5078 377.156C54.612 377.156 53.8177 376.938 53.125 376.5C52.4323 376.057 51.8932 375.43 51.5078 374.617C51.1276 373.799 50.9323 372.854 50.9219 371.781V370.961C50.9219 369.867 51.112 368.901 51.4922 368.062C51.8724 367.224 52.4089 366.583 53.1016 366.141C53.7995 365.693 54.5964 365.469 55.4922 365.469C56.4036 365.469 57.2057 365.69 57.8984 366.133C58.5964 366.57 59.1328 367.208 59.5078 368.047C59.8828 368.88 60.0703 369.852 60.0703 370.961V371.68ZM58.5781 370.945C58.5781 369.596 58.3073 368.562 57.7656 367.844C57.224 367.12 56.4661 366.758 55.4922 366.758C54.5443 366.758 53.7969 367.12 53.25 367.844C52.7083 368.562 52.4297 369.562 52.4141 370.844V371.68C52.4141 372.987 52.6875 374.016 53.2344 374.766C53.7865 375.51 54.5443 375.883 55.5078 375.883C56.4766 375.883 57.2266 375.531 57.7578 374.828C58.2891 374.12 58.5625 373.107 58.5781 371.789V370.945ZM67.0156 374.758C67.0156 374.367 66.8672 374.065 66.5703 373.852C66.2786 373.633 65.7656 373.445 65.0312 373.289C64.3021 373.133 63.7214 372.945 63.2891 372.727C62.862 372.508 62.5443 372.247 62.3359 371.945C62.1328 371.643 62.0312 371.284 62.0312 370.867C62.0312 370.174 62.3229 369.589 62.9062 369.109C63.4948 368.63 64.2448 368.391 65.1562 368.391C66.1146 368.391 66.8906 368.638 67.4844 369.133C68.0833 369.628 68.3828 370.26 68.3828 371.031H66.9297C66.9297 370.635 66.7604 370.294 66.4219 370.008C66.0885 369.721 65.6667 369.578 65.1562 369.578C64.6302 369.578 64.2188 369.693 63.9219 369.922C63.625 370.151 63.4766 370.451 63.4766 370.82C63.4766 371.169 63.6146 371.432 63.8906 371.609C64.1667 371.786 64.6641 371.956 65.3828 372.117C66.1068 372.279 66.6927 372.471 67.1406 372.695C67.5885 372.919 67.9193 373.19 68.1328 373.508C68.3516 373.82 68.4609 374.203 68.4609 374.656C68.4609 375.411 68.1589 376.018 67.5547 376.477C66.9505 376.93 66.1667 377.156 65.2031 377.156C64.526 377.156 63.9271 377.036 63.4062 376.797C62.8854 376.557 62.4766 376.224 62.1797 375.797C61.888 375.365 61.7422 374.898 61.7422 374.398H63.1875C63.2135 374.883 63.4062 375.268 63.7656 375.555C64.1302 375.836 64.6094 375.977 65.2031 375.977C65.75 375.977 66.1875 375.867 66.5156 375.648C66.849 375.424 67.0156 375.128 67.0156 374.758ZM72.3047 366.5V368.547H73.8828V369.664H72.3047V374.906C72.3047 375.245 72.375 375.5 72.5156 375.672C72.6562 375.839 72.8958 375.922 73.2344 375.922C73.401 375.922 73.6302 375.891 73.9219 375.828V377C73.5417 377.104 73.1719 377.156 72.8125 377.156C72.1667 377.156 71.6797 376.961 71.3516 376.57C71.0234 376.18 70.8594 375.625 70.8594 374.906V369.664H69.3203V368.547H70.8594V366.5H72.3047ZM79.6641 369.844C79.4453 369.807 79.2083 369.789 78.9531 369.789C78.0052 369.789 77.362 370.193 77.0234 371V377H75.5781V368.547H76.9844L77.0078 369.523C77.4818 368.768 78.1536 368.391 79.0234 368.391C79.3047 368.391 79.5182 368.427 79.6641 368.5V369.844ZM85.9062 377C85.8229 376.833 85.7552 376.536 85.7031 376.109C85.0312 376.807 84.2292 377.156 83.2969 377.156C82.4635 377.156 81.7786 376.922 81.2422 376.453C80.7109 375.979 80.4453 375.38 80.4453 374.656C80.4453 373.776 80.7786 373.094 81.4453 372.609C82.1172 372.12 83.0599 371.875 84.2734 371.875H85.6797V371.211C85.6797 370.706 85.5286 370.305 85.2266 370.008C84.9245 369.706 84.4792 369.555 83.8906 369.555C83.375 369.555 82.9427 369.685 82.5938 369.945C82.2448 370.206 82.0703 370.521 82.0703 370.891H80.6172C80.6172 370.469 80.7656 370.062 81.0625 369.672C81.3646 369.276 81.7708 368.964 82.2812 368.734C82.7969 368.505 83.362 368.391 83.9766 368.391C84.9505 368.391 85.7135 368.635 86.2656 369.125C86.8177 369.609 87.1042 370.279 87.125 371.133V375.023C87.125 375.799 87.224 376.417 87.4219 376.875V377H85.9062ZM83.5078 375.898C83.9609 375.898 84.3906 375.781 84.7969 375.547C85.2031 375.312 85.4974 375.008 85.6797 374.633V372.898H84.5469C82.776 372.898 81.8906 373.417 81.8906 374.453C81.8906 374.906 82.0417 375.26 82.3438 375.516C82.6458 375.771 83.0339 375.898 83.5078 375.898ZM92.0547 375.039L94.1484 368.547H95.625L92.5938 377H91.4922L88.4297 368.547H89.9062L92.0547 375.039ZM102.109 377C102.026 376.833 101.958 376.536 101.906 376.109C101.234 376.807 100.432 377.156 99.5 377.156C98.6667 377.156 97.9818 376.922 97.4453 376.453C96.9141 375.979 96.6484 375.38 96.6484 374.656C96.6484 373.776 96.9818 373.094 97.6484 372.609C98.3203 372.12 99.263 371.875 100.477 371.875H101.883V371.211C101.883 370.706 101.732 370.305 101.43 370.008C101.128 369.706 100.682 369.555 100.094 369.555C99.5781 369.555 99.1458 369.685 98.7969 369.945C98.4479 370.206 98.2734 370.521 98.2734 370.891H96.8203C96.8203 370.469 96.9688 370.062 97.2656 369.672C97.5677 369.276 97.974 368.964 98.4844 368.734C99 368.505 99.5651 368.391 100.18 368.391C101.154 368.391 101.917 368.635 102.469 369.125C103.021 369.609 103.307 370.279 103.328 371.133V375.023C103.328 375.799 103.427 376.417 103.625 376.875V377H102.109ZM99.7109 375.898C100.164 375.898 100.594 375.781 101 375.547C101.406 375.312 101.701 375.008 101.883 374.633V372.898H100.75C98.9792 372.898 98.0938 373.417 98.0938 374.453C98.0938 374.906 98.2448 375.26 98.5469 375.516C98.849 375.771 99.237 375.898 99.7109 375.898ZM105.547 379.266L104.727 378.703C105.216 378.021 105.471 377.318 105.492 376.594V375.289H106.906V376.422C106.906 376.948 106.776 377.474 106.516 378C106.26 378.526 105.938 378.948 105.547 379.266ZM121.297 373.391C121.156 374.594 120.711 375.523 119.961 376.18C119.216 376.831 118.224 377.156 116.984 377.156C115.641 377.156 114.562 376.674 113.75 375.711C112.943 374.747 112.539 373.458 112.539 371.844V370.75C112.539 369.693 112.727 368.763 113.102 367.961C113.482 367.159 114.018 366.544 114.711 366.117C115.404 365.685 116.206 365.469 117.117 365.469C118.326 365.469 119.294 365.807 120.023 366.484C120.753 367.156 121.177 368.089 121.297 369.281H119.789C119.659 368.375 119.375 367.719 118.938 367.312C118.505 366.906 117.898 366.703 117.117 366.703C116.159 366.703 115.406 367.057 114.859 367.766C114.318 368.474 114.047 369.482 114.047 370.789V371.891C114.047 373.125 114.305 374.107 114.82 374.836C115.336 375.565 116.057 375.93 116.984 375.93C117.818 375.93 118.456 375.742 118.898 375.367C119.346 374.987 119.643 374.328 119.789 373.391H121.297ZM124.484 375.82H129.43V377H122.719V375.938L127.383 369.742H122.789V368.547H129.195V369.57L124.484 375.82ZM134.445 377.156C133.299 377.156 132.367 376.781 131.648 376.031C130.93 375.276 130.57 374.268 130.57 373.008V372.742C130.57 371.904 130.729 371.156 131.047 370.5C131.37 369.839 131.818 369.323 132.391 368.953C132.969 368.578 133.594 368.391 134.266 368.391C135.365 368.391 136.219 368.753 136.828 369.477C137.438 370.201 137.742 371.237 137.742 372.586V373.188H132.016C132.036 374.021 132.279 374.695 132.742 375.211C133.211 375.721 133.805 375.977 134.523 375.977C135.034 375.977 135.466 375.872 135.82 375.664C136.174 375.456 136.484 375.18 136.75 374.836L137.633 375.523C136.924 376.612 135.862 377.156 134.445 377.156ZM134.266 369.578C133.682 369.578 133.193 369.792 132.797 370.219C132.401 370.641 132.156 371.234 132.062 372H136.297V371.891C136.255 371.156 136.057 370.589 135.703 370.188C135.349 369.781 134.87 369.578 134.266 369.578ZM142.812 375.977C143.328 375.977 143.779 375.82 144.164 375.508C144.549 375.195 144.763 374.805 144.805 374.336H146.172C146.146 374.82 145.979 375.281 145.672 375.719C145.365 376.156 144.953 376.505 144.438 376.766C143.927 377.026 143.385 377.156 142.812 377.156C141.661 377.156 140.745 376.773 140.062 376.008C139.385 375.237 139.047 374.185 139.047 372.852V372.609C139.047 371.786 139.198 371.055 139.5 370.414C139.802 369.773 140.234 369.276 140.797 368.922C141.365 368.568 142.034 368.391 142.805 368.391C143.753 368.391 144.539 368.674 145.164 369.242C145.794 369.81 146.13 370.547 146.172 371.453H144.805C144.763 370.906 144.555 370.458 144.18 370.109C143.81 369.755 143.352 369.578 142.805 369.578C142.07 369.578 141.5 369.844 141.094 370.375C140.693 370.901 140.492 371.664 140.492 372.664V372.938C140.492 373.911 140.693 374.661 141.094 375.188C141.495 375.714 142.068 375.977 142.812 375.977ZM149.242 369.57C149.883 368.784 150.716 368.391 151.742 368.391C153.529 368.391 154.43 369.398 154.445 371.414V377H153V371.406C152.995 370.797 152.854 370.346 152.578 370.055C152.307 369.763 151.883 369.617 151.305 369.617C150.836 369.617 150.424 369.742 150.07 369.992C149.716 370.242 149.44 370.57 149.242 370.977V377H147.797V365H149.242V369.57ZM164.977 372.398H162.305V377H160.797V365.625H164.562C165.844 365.625 166.828 365.917 167.516 366.5C168.208 367.083 168.555 367.932 168.555 369.047C168.555 369.755 168.362 370.372 167.977 370.898C167.596 371.424 167.065 371.818 166.383 372.078L169.055 376.906V377H167.445L164.977 372.398ZM162.305 371.172H164.609C165.354 371.172 165.945 370.979 166.383 370.594C166.826 370.208 167.047 369.693 167.047 369.047C167.047 368.344 166.836 367.805 166.414 367.43C165.997 367.055 165.393 366.865 164.602 366.859H162.305V371.172ZM173.945 377.156C172.799 377.156 171.867 376.781 171.148 376.031C170.43 375.276 170.07 374.268 170.07 373.008V372.742C170.07 371.904 170.229 371.156 170.547 370.5C170.87 369.839 171.318 369.323 171.891 368.953C172.469 368.578 173.094 368.391 173.766 368.391C174.865 368.391 175.719 368.753 176.328 369.477C176.938 370.201 177.242 371.237 177.242 372.586V373.188H171.516C171.536 374.021 171.779 374.695 172.242 375.211C172.711 375.721 173.305 375.977 174.023 375.977C174.534 375.977 174.966 375.872 175.32 375.664C175.674 375.456 175.984 375.18 176.25 374.836L177.133 375.523C176.424 376.612 175.362 377.156 173.945 377.156ZM173.766 369.578C173.182 369.578 172.693 369.792 172.297 370.219C171.901 370.641 171.656 371.234 171.562 372H175.797V371.891C175.755 371.156 175.557 370.589 175.203 370.188C174.849 369.781 174.37 369.578 173.766 369.578ZM186.062 372.867C186.062 374.154 185.768 375.19 185.18 375.977C184.591 376.763 183.794 377.156 182.789 377.156C181.763 377.156 180.956 376.831 180.367 376.18V380.25H178.922V368.547H180.242L180.312 369.484C180.901 368.755 181.719 368.391 182.766 368.391C183.781 368.391 184.583 368.773 185.172 369.539C185.766 370.305 186.062 371.37 186.062 372.734V372.867ZM184.617 372.703C184.617 371.75 184.414 370.997 184.008 370.445C183.602 369.893 183.044 369.617 182.336 369.617C181.461 369.617 180.805 370.005 180.367 370.781V374.82C180.799 375.591 181.461 375.977 182.352 375.977C183.044 375.977 183.594 375.703 184 375.156C184.411 374.604 184.617 373.786 184.617 372.703ZM193.125 376.164C192.562 376.826 191.737 377.156 190.648 377.156C189.747 377.156 189.06 376.896 188.586 376.375C188.117 375.849 187.88 375.073 187.875 374.047V368.547H189.32V374.008C189.32 375.289 189.841 375.93 190.883 375.93C191.987 375.93 192.721 375.518 193.086 374.695V368.547H194.531V377H193.156L193.125 376.164ZM203.891 372.867C203.891 374.159 203.594 375.198 203 375.984C202.406 376.766 201.609 377.156 200.609 377.156C199.542 377.156 198.716 376.779 198.133 376.023L198.062 377H196.734V365H198.18V369.477C198.763 368.753 199.568 368.391 200.594 368.391C201.62 368.391 202.424 368.779 203.008 369.555C203.596 370.331 203.891 371.393 203.891 372.742V372.867ZM202.445 372.703C202.445 371.719 202.255 370.958 201.875 370.422C201.495 369.885 200.948 369.617 200.234 369.617C199.281 369.617 198.596 370.06 198.18 370.945V374.602C198.622 375.487 199.312 375.93 200.25 375.93C200.943 375.93 201.482 375.661 201.867 375.125C202.253 374.589 202.445 373.781 202.445 372.703ZM207.289 377H205.844V365H207.289V377ZM211.18 377H209.734V368.547H211.18V377ZM209.617 366.305C209.617 366.07 209.688 365.872 209.828 365.711C209.974 365.549 210.188 365.469 210.469 365.469C210.75 365.469 210.964 365.549 211.109 365.711C211.255 365.872 211.328 366.07 211.328 366.305C211.328 366.539 211.255 366.734 211.109 366.891C210.964 367.047 210.75 367.125 210.469 367.125C210.188 367.125 209.974 367.047 209.828 366.891C209.688 366.734 209.617 366.539 209.617 366.305ZM216.891 375.977C217.406 375.977 217.857 375.82 218.242 375.508C218.628 375.195 218.841 374.805 218.883 374.336H220.25C220.224 374.82 220.057 375.281 219.75 375.719C219.443 376.156 219.031 376.505 218.516 376.766C218.005 377.026 217.464 377.156 216.891 377.156C215.74 377.156 214.823 376.773 214.141 376.008C213.464 375.237 213.125 374.185 213.125 372.852V372.609C213.125 371.786 213.276 371.055 213.578 370.414C213.88 369.773 214.312 369.276 214.875 368.922C215.443 368.568 216.112 368.391 216.883 368.391C217.831 368.391 218.617 368.674 219.242 369.242C219.872 369.81 220.208 370.547 220.25 371.453H218.883C218.841 370.906 218.633 370.458 218.258 370.109C217.888 369.755 217.43 369.578 216.883 369.578C216.148 369.578 215.578 369.844 215.172 370.375C214.771 370.901 214.57 371.664 214.57 372.664V372.938C214.57 373.911 214.771 374.661 215.172 375.188C215.573 375.714 216.146 375.977 216.891 375.977Z" fill="#3E4753"/>
<path d="M51.3203 309V297.625H55.0391C56.2734 297.625 57.2005 297.88 57.8203 298.391C58.4453 298.901 58.7578 299.656 58.7578 300.656C58.7578 301.188 58.6068 301.659 58.3047 302.07C58.0026 302.477 57.5911 302.792 57.0703 303.016C57.6849 303.188 58.1693 303.516 58.5234 304C58.8828 304.479 59.0625 305.052 59.0625 305.719C59.0625 306.74 58.7318 307.542 58.0703 308.125C57.4089 308.708 56.474 309 55.2656 309H51.3203ZM52.8203 303.68V307.773H55.2969C55.9948 307.773 56.5443 307.594 56.9453 307.234C57.3516 306.87 57.5547 306.37 57.5547 305.734C57.5547 304.365 56.8099 303.68 55.3203 303.68H52.8203ZM52.8203 302.477H55.0859C55.7422 302.477 56.2656 302.312 56.6562 301.984C57.0521 301.656 57.25 301.211 57.25 300.648C57.25 300.023 57.0677 299.57 56.7031 299.289C56.3385 299.003 55.7839 298.859 55.0391 298.859H52.8203V302.477ZM65.1484 301.844C64.9297 301.807 64.6927 301.789 64.4375 301.789C63.4896 301.789 62.8464 302.193 62.5078 303V309H61.0625V300.547H62.4688L62.4922 301.523C62.9661 300.768 63.638 300.391 64.5078 300.391C64.7891 300.391 65.0026 300.427 65.1484 300.5V301.844ZM67.8516 300.547L67.8984 301.609C68.5443 300.797 69.388 300.391 70.4297 300.391C72.2161 300.391 73.1172 301.398 73.1328 303.414V309H71.6875V303.406C71.6823 302.797 71.5417 302.346 71.2656 302.055C70.9948 301.763 70.5703 301.617 69.9922 301.617C69.5234 301.617 69.112 301.742 68.7578 301.992C68.4036 302.242 68.1276 302.57 67.9297 302.977V309H66.4844V300.547H67.8516ZM74.9297 304.695C74.9297 303.867 75.0911 303.122 75.4141 302.461C75.7422 301.799 76.1953 301.289 76.7734 300.93C77.3568 300.57 78.0208 300.391 78.7656 300.391C79.9167 300.391 80.8464 300.789 81.5547 301.586C82.2682 302.383 82.625 303.443 82.625 304.766V304.867C82.625 305.69 82.4661 306.43 82.1484 307.086C81.8359 307.737 81.3854 308.245 80.7969 308.609C80.2135 308.974 79.5417 309.156 78.7812 309.156C77.6354 309.156 76.7057 308.758 75.9922 307.961C75.2839 307.164 74.9297 306.109 74.9297 304.797V304.695ZM76.3828 304.867C76.3828 305.805 76.599 306.557 77.0312 307.125C77.4688 307.693 78.0521 307.977 78.7812 307.977C79.5156 307.977 80.099 307.69 80.5312 307.117C80.9635 306.539 81.1797 305.732 81.1797 304.695C81.1797 303.768 80.9583 303.018 80.5156 302.445C80.0781 301.867 79.4948 301.578 78.7656 301.578C78.0521 301.578 77.4766 301.862 77.0391 302.43C76.6016 302.997 76.3828 303.81 76.3828 304.867ZM84.3906 311.266L83.5703 310.703C84.0599 310.021 84.3151 309.318 84.3359 308.594V307.289H85.75V308.422C85.75 308.948 85.6198 309.474 85.3594 310C85.1042 310.526 84.7812 310.948 84.3906 311.266ZM100.141 305.391C100 306.594 99.5547 307.523 98.8047 308.18C98.0599 308.831 97.0677 309.156 95.8281 309.156C94.4844 309.156 93.4062 308.674 92.5938 307.711C91.7865 306.747 91.3828 305.458 91.3828 303.844V302.75C91.3828 301.693 91.5703 300.763 91.9453 299.961C92.3255 299.159 92.862 298.544 93.5547 298.117C94.2474 297.685 95.0495 297.469 95.9609 297.469C97.1693 297.469 98.138 297.807 98.8672 298.484C99.5964 299.156 100.021 300.089 100.141 301.281H98.6328C98.5026 300.375 98.2188 299.719 97.7812 299.312C97.349 298.906 96.7422 298.703 95.9609 298.703C95.0026 298.703 94.25 299.057 93.7031 299.766C93.1615 300.474 92.8906 301.482 92.8906 302.789V303.891C92.8906 305.125 93.1484 306.107 93.6641 306.836C94.1797 307.565 94.901 307.93 95.8281 307.93C96.6615 307.93 97.2995 307.742 97.7422 307.367C98.1901 306.987 98.487 306.328 98.6328 305.391H100.141ZM103.328 307.82H108.273V309H101.562V307.938L106.227 301.742H101.633V300.547H108.039V301.57L103.328 307.82ZM113.289 309.156C112.143 309.156 111.211 308.781 110.492 308.031C109.773 307.276 109.414 306.268 109.414 305.008V304.742C109.414 303.904 109.573 303.156 109.891 302.5C110.214 301.839 110.661 301.323 111.234 300.953C111.812 300.578 112.438 300.391 113.109 300.391C114.208 300.391 115.062 300.753 115.672 301.477C116.281 302.201 116.586 303.237 116.586 304.586V305.188H110.859C110.88 306.021 111.122 306.695 111.586 307.211C112.055 307.721 112.648 307.977 113.367 307.977C113.878 307.977 114.31 307.872 114.664 307.664C115.018 307.456 115.328 307.18 115.594 306.836L116.477 307.523C115.768 308.612 114.706 309.156 113.289 309.156ZM113.109 301.578C112.526 301.578 112.036 301.792 111.641 302.219C111.245 302.641 111 303.234 110.906 304H115.141V303.891C115.099 303.156 114.901 302.589 114.547 302.188C114.193 301.781 113.714 301.578 113.109 301.578ZM121.656 307.977C122.172 307.977 122.622 307.82 123.008 307.508C123.393 307.195 123.607 306.805 123.648 306.336H125.016C124.99 306.82 124.823 307.281 124.516 307.719C124.208 308.156 123.797 308.505 123.281 308.766C122.771 309.026 122.229 309.156 121.656 309.156C120.505 309.156 119.589 308.773 118.906 308.008C118.229 307.237 117.891 306.185 117.891 304.852V304.609C117.891 303.786 118.042 303.055 118.344 302.414C118.646 301.773 119.078 301.276 119.641 300.922C120.208 300.568 120.878 300.391 121.648 300.391C122.596 300.391 123.383 300.674 124.008 301.242C124.638 301.81 124.974 302.547 125.016 303.453H123.648C123.607 302.906 123.398 302.458 123.023 302.109C122.654 301.755 122.195 301.578 121.648 301.578C120.914 301.578 120.344 301.844 119.938 302.375C119.536 302.901 119.336 303.664 119.336 304.664V304.938C119.336 305.911 119.536 306.661 119.938 307.188C120.339 307.714 120.911 307.977 121.656 307.977ZM128.086 301.57C128.727 300.784 129.56 300.391 130.586 300.391C132.372 300.391 133.273 301.398 133.289 303.414V309H131.844V303.406C131.839 302.797 131.698 302.346 131.422 302.055C131.151 301.763 130.727 301.617 130.148 301.617C129.68 301.617 129.268 301.742 128.914 301.992C128.56 302.242 128.284 302.57 128.086 302.977V309H126.641V297H128.086V301.57ZM143.82 304.398H141.148V309H139.641V297.625H143.406C144.688 297.625 145.672 297.917 146.359 298.5C147.052 299.083 147.398 299.932 147.398 301.047C147.398 301.755 147.206 302.372 146.82 302.898C146.44 303.424 145.909 303.818 145.227 304.078L147.898 308.906V309H146.289L143.82 304.398ZM141.148 303.172H143.453C144.198 303.172 144.789 302.979 145.227 302.594C145.669 302.208 145.891 301.693 145.891 301.047C145.891 300.344 145.68 299.805 145.258 299.43C144.841 299.055 144.237 298.865 143.445 298.859H141.148V303.172ZM152.789 309.156C151.643 309.156 150.711 308.781 149.992 308.031C149.273 307.276 148.914 306.268 148.914 305.008V304.742C148.914 303.904 149.073 303.156 149.391 302.5C149.714 301.839 150.161 301.323 150.734 300.953C151.312 300.578 151.938 300.391 152.609 300.391C153.708 300.391 154.562 300.753 155.172 301.477C155.781 302.201 156.086 303.237 156.086 304.586V305.188H150.359C150.38 306.021 150.622 306.695 151.086 307.211C151.555 307.721 152.148 307.977 152.867 307.977C153.378 307.977 153.81 307.872 154.164 307.664C154.518 307.456 154.828 307.18 155.094 306.836L155.977 307.523C155.268 308.612 154.206 309.156 152.789 309.156ZM152.609 301.578C152.026 301.578 151.536 301.792 151.141 302.219C150.745 302.641 150.5 303.234 150.406 304H154.641V303.891C154.599 303.156 154.401 302.589 154.047 302.188C153.693 301.781 153.214 301.578 152.609 301.578ZM164.906 304.867C164.906 306.154 164.612 307.19 164.023 307.977C163.435 308.763 162.638 309.156 161.633 309.156C160.607 309.156 159.799 308.831 159.211 308.18V312.25H157.766V300.547H159.086L159.156 301.484C159.745 300.755 160.562 300.391 161.609 300.391C162.625 300.391 163.427 300.773 164.016 301.539C164.609 302.305 164.906 303.37 164.906 304.734V304.867ZM163.461 304.703C163.461 303.75 163.258 302.997 162.852 302.445C162.445 301.893 161.888 301.617 161.18 301.617C160.305 301.617 159.648 302.005 159.211 302.781V306.82C159.643 307.591 160.305 307.977 161.195 307.977C161.888 307.977 162.438 307.703 162.844 307.156C163.255 306.604 163.461 305.786 163.461 304.703ZM171.969 308.164C171.406 308.826 170.581 309.156 169.492 309.156C168.591 309.156 167.904 308.896 167.43 308.375C166.961 307.849 166.724 307.073 166.719 306.047V300.547H168.164V306.008C168.164 307.289 168.685 307.93 169.727 307.93C170.831 307.93 171.565 307.518 171.93 306.695V300.547H173.375V309H172L171.969 308.164ZM182.734 304.867C182.734 306.159 182.438 307.198 181.844 307.984C181.25 308.766 180.453 309.156 179.453 309.156C178.385 309.156 177.56 308.779 176.977 308.023L176.906 309H175.578V297H177.023V301.477C177.607 300.753 178.411 300.391 179.438 300.391C180.464 300.391 181.268 300.779 181.852 301.555C182.44 302.331 182.734 303.393 182.734 304.742V304.867ZM181.289 304.703C181.289 303.719 181.099 302.958 180.719 302.422C180.339 301.885 179.792 301.617 179.078 301.617C178.125 301.617 177.44 302.06 177.023 302.945V306.602C177.466 307.487 178.156 307.93 179.094 307.93C179.786 307.93 180.326 307.661 180.711 307.125C181.096 306.589 181.289 305.781 181.289 304.703ZM186.133 309H184.688V297H186.133V309ZM190.023 309H188.578V300.547H190.023V309ZM188.461 298.305C188.461 298.07 188.531 297.872 188.672 297.711C188.818 297.549 189.031 297.469 189.312 297.469C189.594 297.469 189.807 297.549 189.953 297.711C190.099 297.872 190.172 298.07 190.172 298.305C190.172 298.539 190.099 298.734 189.953 298.891C189.807 299.047 189.594 299.125 189.312 299.125C189.031 299.125 188.818 299.047 188.672 298.891C188.531 298.734 188.461 298.539 188.461 298.305ZM195.734 307.977C196.25 307.977 196.701 307.82 197.086 307.508C197.471 307.195 197.685 306.805 197.727 306.336H199.094C199.068 306.82 198.901 307.281 198.594 307.719C198.286 308.156 197.875 308.505 197.359 308.766C196.849 309.026 196.307 309.156 195.734 309.156C194.583 309.156 193.667 308.773 192.984 308.008C192.307 307.237 191.969 306.185 191.969 304.852V304.609C191.969 303.786 192.12 303.055 192.422 302.414C192.724 301.773 193.156 301.276 193.719 300.922C194.286 300.568 194.956 300.391 195.727 300.391C196.674 300.391 197.461 300.674 198.086 301.242C198.716 301.81 199.052 302.547 199.094 303.453H197.727C197.685 302.906 197.477 302.458 197.102 302.109C196.732 301.755 196.273 301.578 195.727 301.578C194.992 301.578 194.422 301.844 194.016 302.375C193.615 302.901 193.414 303.664 193.414 304.664V304.938C193.414 305.911 193.615 306.661 194.016 307.188C194.417 307.714 194.99 307.977 195.734 307.977Z" fill="#ACB6C4"/>
</g>
<defs>
<filter id="filter0_d" x="28" y="236" width="319" height="59" filterUnits="userSpaceOnUse" color-interpolation-filters="sRGB">
<feFlood flood-opacity="0" result="BackgroundImageFix"/>
<feColorMatrix in="SourceAlpha" type="matrix" values="0 0 0 0 0 0 0 0 0 0 0 0 0 0 0 0 0 0 127 0"/>
<feOffset dy="3"/>
<feGaussianBlur stdDeviation="3.5"/>
<feColorMatrix type="matrix" values="0 0 0 0 0.241436 0 0 0 0 0.277565 0 0 0 0 0.325737 0 0 0 0.1 0"/>
<feBlend mode="normal" in2="BackgroundImageFix" result="effect1_dropShadow"/>
<feBlend mode="normal" in="SourceGraphic" in2="effect1_dropShadow" result="shape"/>
</filter>
<filter id="filter1_d" x="-7" y="-4" width="389" height="209" filterUnits="userSpaceOnUse" color-interpolation-filters="sRGB">
<feFlood flood-opacity="0" result="BackgroundImageFix"/>
<feColorMatrix in="SourceAlpha" type="matrix" values="0 0 0 0 0 0 0 0 0 0 0 0 0 0 0 0 0 0 127 0"/>
<feOffset dy="3"/>
<feGaussianBlur stdDeviation="3.5"/>
<feColorMatrix type="matrix" values="0 0 0 0 0.241436 0 0 0 0 0.277565 0 0 0 0 0.325737 0 0 0 0.1 0"/>
<feBlend mode="normal" in2="BackgroundImageFix" result="effect1_dropShadow"/>
<feBlend mode="normal" in="SourceGraphic" in2="effect1_dropShadow" result="shape"/>
</filter>
<filter id="filter2_d" x="-10" y="-9" width="395" height="215" filterUnits="userSpaceOnUse" color-interpolation-filters="sRGB">
<feFlood flood-opacity="0" result="BackgroundImageFix"/>
<feColorMatrix in="SourceAlpha" type="matrix" values="0 0 0 0 0 0 0 0 0 0 0 0 0 0 0 0 0 0 127 0"/>
<feOffset dy="1"/>
<feGaussianBlur stdDeviation="5"/>
<feColorMatrix type="matrix" values="0 0 0 0 0.803922 0 0 0 0 0.839216 0 0 0 0 0.886275 0 0 0 0.4 0"/>
<feBlend mode="normal" in2="BackgroundImageFix" result="effect1_dropShadow"/>
<feBlend mode="normal" in="SourceGraphic" in2="effect1_dropShadow" result="shape"/>
</filter>
<filter id="filter3_d" x="28" y="280" width="319" height="159" filterUnits="userSpaceOnUse" color-interpolation-filters="sRGB">
<feFlood flood-opacity="0" result="BackgroundImageFix"/>
<feColorMatrix in="SourceAlpha" type="matrix" values="0 0 0 0 0 0 0 0 0 0 0 0 0 0 0 0 0 0 127 0"/>
<feOffset dy="3"/>
<feGaussianBlur stdDeviation="3.5"/>
<feColorMatrix type="matrix" values="0 0 0 0 0.241436 0 0 0 0 0.277565 0 0 0 0 0.325737 0 0 0 0.1 0"/>
<feBlend mode="normal" in2="BackgroundImageFix" result="effect1_dropShadow"/>
<feBlend mode="normal" in="SourceGraphic" in2="effect1_dropShadow" result="shape"/>
</filter>
<clipPath id="clip0">
<rect width="375" height="667" fill="white"/>
</clipPath>
</defs>
</svg>
