<svg width="375" height="667" viewBox="0 0 375 667" fill="none" xmlns="http://www.w3.org/2000/svg">
<g clip-path="url(#clip0)">
<rect width="375" height="667" fill="white"/>
<rect x="290" y="608" width="50" height="24" rx="12" fill="#DFE5ED"/>
<circle cx="303" cy="620" r="10" fill="#828C9A"/>
<path d="M221.539 625V616.469H223.924C224.623 616.469 225.25 616.629 225.805 616.949C226.359 617.266 226.791 617.721 227.1 618.314C227.412 618.908 227.568 619.584 227.568 620.342V621.127C227.568 621.889 227.414 622.564 227.105 623.154C226.797 623.744 226.361 624.199 225.799 624.52C225.24 624.84 224.598 625 223.871 625H221.539ZM222.26 617.084V624.391H223.877C224.775 624.391 225.496 624.094 226.039 623.5C226.582 622.902 226.854 622.096 226.854 621.08V620.33C226.854 619.35 226.586 618.564 226.051 617.975C225.516 617.385 224.811 617.088 223.936 617.084H222.26ZM233.879 622.609H230.006L229.127 625H228.371L231.6 616.469H232.285L235.514 625H234.764L233.879 622.609ZM230.229 621.994H233.65L231.939 617.348L230.229 621.994ZM239.961 621.449H237.482V625H236.756V616.469H239.527C240.438 616.469 241.148 616.689 241.66 617.131C242.172 617.572 242.428 618.189 242.428 618.982C242.428 619.529 242.268 620.012 241.947 620.43C241.627 620.848 241.197 621.137 240.658 621.297L242.791 624.924V625H242.023L239.961 621.449ZM237.482 620.834H239.691C240.297 620.834 240.783 620.662 241.15 620.318C241.518 619.975 241.701 619.529 241.701 618.982C241.701 618.381 241.51 617.914 241.127 617.582C240.744 617.25 240.207 617.084 239.516 617.084H237.482V620.834ZM246.312 620.764L245.111 621.947V625H244.391V616.469H245.111V621.068L249.482 616.469H250.391L246.816 620.266L250.666 625H249.787L246.312 620.764ZM255.834 616.469L258.98 623.998L262.139 616.469H263.1V625H262.379V621.285L262.438 617.477L259.262 625H258.705L255.541 617.506L255.6 621.262V625H254.879V616.469H255.834ZM271.566 621.197C271.566 621.982 271.43 622.672 271.156 623.266C270.887 623.859 270.5 624.316 269.996 624.637C269.492 624.957 268.91 625.117 268.25 625.117C267.254 625.117 266.449 624.762 265.836 624.051C265.223 623.336 264.916 622.373 264.916 621.162V620.283C264.916 619.506 265.053 618.818 265.326 618.221C265.604 617.619 265.994 617.158 266.498 616.838C267.002 616.514 267.582 616.352 268.238 616.352C268.895 616.352 269.473 616.51 269.973 616.826C270.477 617.143 270.865 617.59 271.139 618.168C271.412 618.746 271.555 619.416 271.566 620.178V621.197ZM270.846 620.271C270.846 619.244 270.613 618.439 270.148 617.857C269.684 617.275 269.047 616.984 268.238 616.984C267.445 616.984 266.812 617.277 266.34 617.863C265.871 618.445 265.637 619.26 265.637 620.307V621.197C265.637 622.209 265.871 623.012 266.34 623.605C266.809 624.195 267.445 624.49 268.25 624.49C269.066 624.49 269.703 624.199 270.16 623.617C270.617 623.031 270.846 622.217 270.846 621.174V620.271ZM273.383 625V616.469H275.768C276.467 616.469 277.094 616.629 277.648 616.949C278.203 617.266 278.635 617.721 278.943 618.314C279.256 618.908 279.412 619.584 279.412 620.342V621.127C279.412 621.889 279.258 622.564 278.949 623.154C278.641 623.744 278.205 624.199 277.643 624.52C277.084 624.84 276.441 625 275.715 625H273.383ZM274.104 617.084V624.391H275.721C276.619 624.391 277.34 624.094 277.883 623.5C278.426 622.902 278.697 622.096 278.697 621.08V620.33C278.697 619.35 278.43 618.564 277.895 617.975C277.359 617.385 276.654 617.088 275.779 617.084H274.104ZM285.957 620.91H281.967V624.391H286.555V625H281.246V616.469H286.525V617.084H281.967V620.301H285.957V620.91Z" fill="#3E4753"/>
<path d="M84.5676 123.657H65.2021C63.9909 123.657 63.8389 122.352 63.8389 121.141V117.785C63.8389 116.574 63.9909 114.849 65.2021 114.849H84.7739C86.9624 114.849 89.0132 113.348 89.3711 111.188C89.8253 108.435 87.7057 106.04 85.0218 106.04C83.0812 106.04 81.4295 107.306 80.8377 109.054C80.5486 109.921 79.009 111.188 78.1006 111.188H73.906C72.5571 111.188 71.7949 109.233 72.0426 107.912C73.2263 101.842 78.5941 97.2312 85.008 97.2312C92.8671 97.2312 99.1432 104.127 98.111 112.178C97.2714 118.84 91.2704 123.657 84.5676 123.657ZM65.2021 128.062H111.448C119.665 128.062 126.147 135.604 124.358 144.124C123.312 149.106 119.279 153.139 114.297 154.185C106.672 155.782 99.8315 150.758 98.4827 143.794C98.2211 142.472 99.4166 140.532 100.752 140.532H105.172C106.094 140.532 106.975 141.798 107.264 142.665C107.856 144.413 109.507 145.679 111.448 145.679C114.118 145.679 116.251 143.284 115.797 140.532C115.439 138.371 113.402 136.87 111.2 136.87H65.2021C63.9909 136.87 63.8389 135.775 63.8389 134.563V130.369C63.8389 129.158 63.9909 128.062 65.2021 128.062ZM118.054 123.657H96.557C99.2134 121.373 102.667 118.317 103.575 114.849H118.054C121.702 114.849 124.661 111.889 124.661 108.242C124.661 104.595 121.702 101.636 118.054 101.636C115.591 101.636 113.471 102.998 112.329 104.994C111.93 105.682 109.939 106.879 109.141 106.879H105.172C103.671 106.879 103.066 104.553 103.575 103.136C106.025 96.1715 113.278 91.4642 121.385 93.1847C127.056 94.3822 131.722 98.9104 133.043 104.567C135.397 114.642 127.758 123.657 118.054 123.657Z" fill="#FD5C63"/>
<path d="M182.652 137.028H161.967L158.035 148.826H145.49L166.804 91.5688H177.736L199.168 148.826H186.624L182.652 137.028ZM165.152 127.472H179.467L172.27 106.04L165.152 127.472ZM215.763 148.826H204.359V106.276H215.763V148.826ZM203.691 95.2653C203.691 93.5613 204.254 92.1588 205.382 91.0576C206.535 89.9565 208.095 89.406 210.061 89.406C212.001 89.406 213.548 89.9565 214.702 91.0576C215.855 92.1588 216.432 93.5613 216.432 95.2653C216.432 96.9957 215.842 98.4113 214.662 99.5124C213.509 100.613 211.975 101.164 210.061 101.164C208.147 101.164 206.6 100.613 205.421 99.5124C204.267 98.4113 203.691 96.9957 203.691 95.2653ZM249.07 116.933C247.525 116.724 246.161 116.619 244.982 116.619C240.681 116.619 237.864 118.074 236.527 120.984V148.826H225.162V106.276H235.898L236.211 111.349C238.493 107.443 241.653 105.49 245.69 105.49C246.948 105.49 248.128 105.66 249.228 106.001L249.07 116.933ZM266.57 148.826H255.166V88.4229H266.57V148.826ZM291.856 132.742L299.721 106.276H311.913L294.805 155.432L293.862 157.674C291.319 163.231 287.124 166.01 281.279 166.01C279.626 166.01 277.948 165.761 276.245 165.263V156.651L277.975 156.69C280.124 156.69 281.723 156.363 282.772 155.707C283.847 155.052 284.686 153.964 285.289 152.443L286.626 148.943L271.721 106.276H283.953L291.856 132.742Z" fill="#525050"/>
<path d="M60.4844 204.029L60.7852 206.092L61.2256 204.233L64.3193 193.319H66.0596L69.0781 204.233L69.5078 206.124L69.8408 204.019L72.2686 193.319H74.3418L70.5498 208.96H68.6699L65.4473 197.562L65.2002 196.37L64.9531 197.562L61.6123 208.96H59.7324L55.9512 193.319H58.0137L60.4844 204.029ZM80.8086 209.175C79.2331 209.175 77.9512 208.659 76.9629 207.628C75.9746 206.59 75.4805 205.204 75.4805 203.471V203.105C75.4805 201.952 75.6989 200.925 76.1357 200.022C76.5798 199.113 77.1956 198.404 77.9834 197.896C78.7783 197.38 79.6377 197.122 80.5615 197.122C82.0726 197.122 83.2471 197.62 84.085 198.615C84.9229 199.611 85.3418 201.036 85.3418 202.891V203.718H77.4678C77.4964 204.864 77.8294 205.791 78.4668 206.5C79.1113 207.202 79.9277 207.553 80.916 207.553C81.6178 207.553 82.2122 207.41 82.6992 207.123C83.1862 206.837 83.6123 206.457 83.9775 205.984L85.1914 206.93C84.2174 208.426 82.7565 209.175 80.8086 209.175ZM80.5615 198.755C79.7594 198.755 79.0863 199.049 78.542 199.636C77.9977 200.216 77.6611 201.032 77.5322 202.085H83.3545V201.935C83.2972 200.925 83.0251 200.144 82.5381 199.593C82.0511 199.034 81.3923 198.755 80.5615 198.755ZM94.8271 208.96C94.7126 208.731 94.6195 208.323 94.5479 207.735C93.624 208.695 92.5212 209.175 91.2393 209.175C90.0934 209.175 89.1517 208.853 88.4141 208.208C87.6836 207.556 87.3184 206.733 87.3184 205.737C87.3184 204.527 87.7767 203.589 88.6934 202.923C89.6172 202.25 90.9134 201.913 92.582 201.913H94.5156V201C94.5156 200.305 94.3079 199.754 93.8926 199.346C93.4772 198.93 92.8649 198.723 92.0557 198.723C91.3467 198.723 90.7523 198.902 90.2725 199.26C89.7926 199.618 89.5527 200.051 89.5527 200.56H87.5547C87.5547 199.979 87.7588 199.421 88.167 198.884C88.5824 198.34 89.141 197.91 89.8428 197.595C90.5518 197.28 91.3288 197.122 92.1738 197.122C93.513 197.122 94.5622 197.459 95.3213 198.132C96.0804 198.798 96.4743 199.718 96.5029 200.893V206.242C96.5029 207.309 96.639 208.158 96.9111 208.788V208.96H94.8271ZM91.5293 207.445C92.1523 207.445 92.7432 207.284 93.3018 206.962C93.8604 206.64 94.265 206.221 94.5156 205.705V203.32H92.958C90.5231 203.32 89.3057 204.033 89.3057 205.458C89.3057 206.081 89.5133 206.568 89.9287 206.919C90.3441 207.27 90.8776 207.445 91.5293 207.445ZM102.314 194.522V197.337H104.484V198.873H102.314V206.081C102.314 206.547 102.411 206.897 102.604 207.134C102.798 207.363 103.127 207.478 103.593 207.478C103.822 207.478 104.137 207.435 104.538 207.349V208.96C104.015 209.103 103.507 209.175 103.013 209.175C102.125 209.175 101.455 208.906 101.004 208.369C100.553 207.832 100.327 207.069 100.327 206.081V198.873H98.2109V197.337H100.327V194.522H102.314ZM108.803 198.744C109.684 197.663 110.829 197.122 112.24 197.122C114.697 197.122 115.936 198.508 115.957 201.279V208.96H113.97V201.269C113.963 200.431 113.769 199.811 113.39 199.41C113.017 199.009 112.434 198.809 111.639 198.809C110.994 198.809 110.428 198.98 109.941 199.324C109.454 199.668 109.075 200.119 108.803 200.678V208.96H106.815V192.46H108.803V198.744ZM123.756 209.175C122.18 209.175 120.898 208.659 119.91 207.628C118.922 206.59 118.428 205.204 118.428 203.471V203.105C118.428 201.952 118.646 200.925 119.083 200.022C119.527 199.113 120.143 198.404 120.931 197.896C121.726 197.38 122.585 197.122 123.509 197.122C125.02 197.122 126.194 197.62 127.032 198.615C127.87 199.611 128.289 201.036 128.289 202.891V203.718H120.415C120.444 204.864 120.777 205.791 121.414 206.5C122.059 207.202 122.875 207.553 123.863 207.553C124.565 207.553 125.16 207.41 125.646 207.123C126.133 206.837 126.56 206.457 126.925 205.984L128.139 206.93C127.165 208.426 125.704 209.175 123.756 209.175ZM123.509 198.755C122.707 198.755 122.034 199.049 121.489 199.636C120.945 200.216 120.608 201.032 120.479 202.085H126.302V201.935C126.244 200.925 125.972 200.144 125.485 199.593C124.998 199.034 124.34 198.755 123.509 198.755ZM136.217 199.12C135.916 199.07 135.59 199.045 135.239 199.045C133.936 199.045 133.051 199.6 132.586 200.71V208.96H130.599V197.337H132.532L132.564 198.68C133.216 197.641 134.14 197.122 135.336 197.122C135.723 197.122 136.016 197.172 136.217 197.272V199.12ZM143.092 204.76C143.092 204.008 143.299 203.317 143.715 202.687C144.137 202.056 144.939 201.322 146.121 200.484C145.426 199.639 144.961 198.959 144.725 198.443C144.488 197.928 144.37 197.416 144.37 196.907C144.37 195.718 144.721 194.787 145.423 194.114C146.125 193.441 147.077 193.104 148.28 193.104C149.354 193.104 150.243 193.42 150.944 194.05C151.646 194.673 151.997 195.461 151.997 196.413C151.997 197.043 151.836 197.627 151.514 198.164C151.199 198.694 150.644 199.253 149.849 199.84L148.699 200.688L152.18 204.846C152.667 203.915 152.91 202.88 152.91 201.741H154.704C154.704 203.567 154.264 205.082 153.383 206.285L155.617 208.96H153.232L152.19 207.725C151.66 208.197 151.037 208.559 150.321 208.81C149.612 209.053 148.889 209.175 148.151 209.175C146.626 209.175 145.401 208.77 144.478 207.961C143.554 207.152 143.092 206.085 143.092 204.76ZM148.151 207.553C149.204 207.553 150.167 207.152 151.041 206.35L147.228 201.784L146.873 202.042C145.677 202.923 145.079 203.829 145.079 204.76C145.079 205.605 145.351 206.282 145.896 206.79C146.447 207.299 147.199 207.553 148.151 207.553ZM146.357 196.843C146.357 197.53 146.78 198.39 147.625 199.421L148.893 198.529C149.38 198.186 149.713 197.86 149.892 197.552C150.071 197.237 150.16 196.857 150.16 196.413C150.16 195.933 149.981 195.536 149.623 195.221C149.265 194.898 148.814 194.737 148.27 194.737C147.682 194.737 147.217 194.938 146.873 195.339C146.529 195.733 146.357 196.234 146.357 196.843ZM169.829 208.96C169.715 208.731 169.621 208.323 169.55 207.735C168.626 208.695 167.523 209.175 166.241 209.175C165.095 209.175 164.154 208.853 163.416 208.208C162.686 207.556 162.32 206.733 162.32 205.737C162.32 204.527 162.779 203.589 163.695 202.923C164.619 202.25 165.915 201.913 167.584 201.913H169.518V201C169.518 200.305 169.31 199.754 168.895 199.346C168.479 198.93 167.867 198.723 167.058 198.723C166.349 198.723 165.754 198.902 165.274 199.26C164.795 199.618 164.555 200.051 164.555 200.56H162.557C162.557 199.979 162.761 199.421 163.169 198.884C163.584 198.34 164.143 197.91 164.845 197.595C165.554 197.28 166.331 197.122 167.176 197.122C168.515 197.122 169.564 197.459 170.323 198.132C171.082 198.798 171.476 199.718 171.505 200.893V206.242C171.505 207.309 171.641 208.158 171.913 208.788V208.96H169.829ZM166.531 207.445C167.154 207.445 167.745 207.284 168.304 206.962C168.862 206.64 169.267 206.221 169.518 205.705V203.32H167.96C165.525 203.32 164.308 204.033 164.308 205.458C164.308 206.081 164.515 206.568 164.931 206.919C165.346 207.27 165.88 207.445 166.531 207.445ZM176.779 208.96H174.792V197.337H176.779V208.96ZM174.631 194.254C174.631 193.932 174.728 193.66 174.921 193.438C175.121 193.215 175.415 193.104 175.802 193.104C176.188 193.104 176.482 193.215 176.683 193.438C176.883 193.66 176.983 193.932 176.983 194.254C176.983 194.576 176.883 194.845 176.683 195.06C176.482 195.274 176.188 195.382 175.802 195.382C175.415 195.382 175.121 195.274 174.921 195.06C174.728 194.845 174.631 194.576 174.631 194.254ZM185.588 199.12C185.287 199.07 184.961 199.045 184.61 199.045C183.307 199.045 182.423 199.6 181.957 200.71V208.96H179.97V197.337H181.903L181.936 198.68C182.587 197.641 183.511 197.122 184.707 197.122C185.094 197.122 185.387 197.172 185.588 197.272V199.12ZM192.398 203.052C192.398 201.226 192.817 199.783 193.655 198.723C194.493 197.656 195.618 197.122 197.028 197.122C198.403 197.122 199.488 197.584 200.283 198.508L200.369 197.337H202.195V213.429H200.208V207.886C199.406 208.745 198.339 209.175 197.007 209.175C195.603 209.175 194.482 208.631 193.645 207.542C192.814 206.446 192.398 204.996 192.398 203.191V203.052ZM194.386 203.277C194.386 204.609 194.665 205.655 195.224 206.414C195.789 207.173 196.549 207.553 197.501 207.553C198.683 207.553 199.585 207.03 200.208 205.984V200.291C199.578 199.267 198.683 198.755 197.522 198.755C196.563 198.755 195.8 199.138 195.234 199.904C194.669 200.663 194.386 201.788 194.386 203.277ZM212.562 207.811C211.788 208.72 210.653 209.175 209.156 209.175C207.917 209.175 206.972 208.817 206.32 208.101C205.676 207.377 205.35 206.31 205.343 204.899V197.337H207.33V204.846C207.33 206.607 208.046 207.488 209.479 207.488C210.997 207.488 212.007 206.923 212.508 205.791V197.337H214.495V208.96H212.604L212.562 207.811ZM224.7 208.96C224.586 208.731 224.493 208.323 224.421 207.735C223.497 208.695 222.394 209.175 221.112 209.175C219.966 209.175 219.025 208.853 218.287 208.208C217.557 207.556 217.191 206.733 217.191 205.737C217.191 204.527 217.65 203.589 218.566 202.923C219.49 202.25 220.786 201.913 222.455 201.913H224.389V201C224.389 200.305 224.181 199.754 223.766 199.346C223.35 198.93 222.738 198.723 221.929 198.723C221.22 198.723 220.625 198.902 220.146 199.26C219.666 199.618 219.426 200.051 219.426 200.56H217.428C217.428 199.979 217.632 199.421 218.04 198.884C218.455 198.34 219.014 197.91 219.716 197.595C220.425 197.28 221.202 197.122 222.047 197.122C223.386 197.122 224.435 197.459 225.194 198.132C225.953 198.798 226.347 199.718 226.376 200.893V206.242C226.376 207.309 226.512 208.158 226.784 208.788V208.96H224.7ZM221.402 207.445C222.025 207.445 222.616 207.284 223.175 206.962C223.733 206.64 224.138 206.221 224.389 205.705V203.32H222.831C220.396 203.32 219.179 204.033 219.179 205.458C219.179 206.081 219.386 206.568 219.802 206.919C220.217 207.27 220.751 207.445 221.402 207.445ZM231.65 208.96H229.663V192.46H231.65V208.96ZM237 208.96H235.013V197.337H237V208.96ZM234.852 194.254C234.852 193.932 234.948 193.66 235.142 193.438C235.342 193.215 235.636 193.104 236.022 193.104C236.409 193.104 236.703 193.215 236.903 193.438C237.104 193.66 237.204 193.932 237.204 194.254C237.204 194.576 237.104 194.845 236.903 195.06C236.703 195.274 236.409 195.382 236.022 195.382C235.636 195.382 235.342 195.274 235.142 195.06C234.948 194.845 234.852 194.576 234.852 194.254ZM242.887 194.522V197.337H245.057V198.873H242.887V206.081C242.887 206.547 242.983 206.897 243.177 207.134C243.37 207.363 243.7 207.478 244.165 207.478C244.394 207.478 244.709 207.435 245.11 207.349V208.96C244.588 209.103 244.079 209.175 243.585 209.175C242.697 209.175 242.027 208.906 241.576 208.369C241.125 207.832 240.899 207.069 240.899 206.081V198.873H238.783V197.337H240.899V194.522H242.887ZM251.19 206.049L253.897 197.337H256.024L251.352 210.754C250.628 212.688 249.479 213.654 247.903 213.654L247.527 213.622L246.786 213.482V211.871L247.323 211.914C247.996 211.914 248.519 211.778 248.892 211.506C249.271 211.234 249.583 210.736 249.826 210.013L250.267 208.831L246.12 197.337H248.29L251.19 206.049ZM265.424 208.96H263.437V197.337H265.424V208.96ZM263.275 194.254C263.275 193.932 263.372 193.66 263.565 193.438C263.766 193.215 264.06 193.104 264.446 193.104C264.833 193.104 265.127 193.215 265.327 193.438C265.528 193.66 265.628 193.932 265.628 194.254C265.628 194.576 265.528 194.845 265.327 195.06C265.127 195.274 264.833 195.382 264.446 195.382C264.06 195.382 263.766 195.274 263.565 195.06C263.372 194.845 263.275 194.576 263.275 194.254ZM270.494 197.337L270.559 198.798C271.447 197.681 272.607 197.122 274.039 197.122C276.495 197.122 277.734 198.508 277.756 201.279V208.96H275.769V201.269C275.761 200.431 275.568 199.811 275.188 199.41C274.816 199.009 274.232 198.809 273.438 198.809C272.793 198.809 272.227 198.98 271.74 199.324C271.253 199.668 270.874 200.119 270.602 200.678V208.96H268.614V197.337H270.494ZM280.27 203.052C280.27 201.269 280.692 199.836 281.537 198.755C282.382 197.666 283.489 197.122 284.856 197.122C286.217 197.122 287.295 197.588 288.09 198.519V192.46H290.077V208.96H288.251L288.154 207.714C287.359 208.688 286.253 209.175 284.835 209.175C283.489 209.175 282.389 208.623 281.537 207.521C280.692 206.418 280.27 204.978 280.27 203.202V203.052ZM282.257 203.277C282.257 204.595 282.529 205.626 283.073 206.371C283.618 207.116 284.369 207.488 285.329 207.488C286.59 207.488 287.51 206.923 288.09 205.791V200.452C287.495 199.356 286.582 198.809 285.351 198.809C284.377 198.809 283.618 199.185 283.073 199.937C282.529 200.688 282.257 201.802 282.257 203.277ZM297.994 209.175C296.419 209.175 295.137 208.659 294.148 207.628C293.16 206.59 292.666 205.204 292.666 203.471V203.105C292.666 201.952 292.884 200.925 293.321 200.022C293.765 199.113 294.381 198.404 295.169 197.896C295.964 197.38 296.823 197.122 297.747 197.122C299.258 197.122 300.433 197.62 301.271 198.615C302.108 199.611 302.527 201.036 302.527 202.891V203.718H294.653C294.682 204.864 295.015 205.791 295.652 206.5C296.297 207.202 297.113 207.553 298.102 207.553C298.803 207.553 299.398 207.41 299.885 207.123C300.372 206.837 300.798 206.457 301.163 205.984L302.377 206.93C301.403 208.426 299.942 209.175 297.994 209.175ZM297.747 198.755C296.945 198.755 296.272 199.049 295.728 199.636C295.183 200.216 294.847 201.032 294.718 202.085H300.54V201.935C300.483 200.925 300.211 200.144 299.724 199.593C299.237 199.034 298.578 198.755 297.747 198.755ZM308.736 201.58L311.314 197.337H313.635L309.832 203.084L313.753 208.96H311.454L308.769 204.609L306.083 208.96H303.773L307.694 203.084L303.892 197.337H306.19L308.736 201.58ZM45.1982 234.96V224.873H43.3613V223.337H45.1982V222.145C45.1982 220.898 45.5312 219.935 46.1973 219.255C46.8633 218.575 47.805 218.234 49.0225 218.234C49.4808 218.234 49.9355 218.295 50.3867 218.417L50.2793 220.028C49.9427 219.964 49.5846 219.932 49.2051 219.932C48.5605 219.932 48.0628 220.121 47.7119 220.501C47.361 220.873 47.1855 221.41 47.1855 222.112V223.337H49.667V224.873H47.1855V234.96H45.1982ZM51.3428 229.041C51.3428 227.902 51.5648 226.878 52.0088 225.969C52.46 225.059 53.083 224.357 53.8779 223.863C54.68 223.369 55.5931 223.122 56.6172 223.122C58.1999 223.122 59.4782 223.67 60.4521 224.766C61.4333 225.861 61.9238 227.319 61.9238 229.138V229.277C61.9238 230.409 61.7054 231.426 61.2686 232.328C60.8389 233.223 60.2194 233.922 59.4102 234.423C58.6081 234.924 57.6842 235.175 56.6387 235.175C55.0632 235.175 53.7848 234.627 52.8037 233.531C51.8298 232.436 51.3428 230.985 51.3428 229.181V229.041ZM53.3408 229.277C53.3408 230.566 53.638 231.601 54.2324 232.382C54.834 233.162 55.6361 233.553 56.6387 233.553C57.6484 233.553 58.4505 233.159 59.0449 232.371C59.6393 231.576 59.9365 230.466 59.9365 229.041C59.9365 227.766 59.6322 226.735 59.0234 225.947C58.4219 225.152 57.6198 224.755 56.6172 224.755C55.6361 224.755 54.8447 225.145 54.2432 225.926C53.6416 226.706 53.3408 227.824 53.3408 229.277ZM70.0342 225.12C69.7334 225.07 69.4076 225.045 69.0566 225.045C67.7533 225.045 66.8688 225.6 66.4033 226.71V234.96H64.416V223.337H66.3496L66.3818 224.68C67.0335 223.641 67.9574 223.122 69.1533 223.122C69.54 223.122 69.8337 223.172 70.0342 223.272V225.12ZM81.9902 233.553C82.6992 233.553 83.3187 233.338 83.8486 232.908C84.3786 232.479 84.6722 231.941 84.7295 231.297H86.6094C86.5736 231.963 86.3444 232.597 85.9219 233.198C85.4993 233.8 84.9336 234.28 84.2246 234.638C83.5228 234.996 82.778 235.175 81.9902 235.175C80.4076 235.175 79.1471 234.648 78.209 233.596C77.278 232.536 76.8125 231.089 76.8125 229.256V228.923C76.8125 227.791 77.0202 226.785 77.4355 225.904C77.8509 225.023 78.4453 224.34 79.2188 223.853C79.9993 223.366 80.9196 223.122 81.9795 223.122C83.2829 223.122 84.3643 223.512 85.2236 224.293C86.0902 225.074 86.5521 226.087 86.6094 227.333H84.7295C84.6722 226.581 84.3857 225.965 83.8701 225.485C83.3617 224.998 82.7314 224.755 81.9795 224.755C80.9697 224.755 80.1855 225.12 79.627 225.851C79.0755 226.574 78.7998 227.623 78.7998 228.998V229.374C78.7998 230.713 79.0755 231.744 79.627 232.468C80.1784 233.191 80.9661 233.553 81.9902 233.553ZM91.0029 234.96H89.0156V223.337H91.0029V234.96ZM88.8545 220.254C88.8545 219.932 88.9512 219.66 89.1445 219.438C89.3451 219.215 89.6387 219.104 90.0254 219.104C90.4121 219.104 90.7057 219.215 90.9062 219.438C91.1068 219.66 91.207 219.932 91.207 220.254C91.207 220.576 91.1068 220.845 90.9062 221.06C90.7057 221.274 90.4121 221.382 90.0254 221.382C89.6387 221.382 89.3451 221.274 89.1445 221.06C88.9512 220.845 88.8545 220.576 88.8545 220.254ZM96.8896 220.522V223.337H99.0596V224.873H96.8896V232.081C96.8896 232.547 96.9863 232.897 97.1797 233.134C97.373 233.363 97.7025 233.478 98.168 233.478C98.3971 233.478 98.7122 233.435 99.1133 233.349V234.96C98.5905 235.103 98.082 235.175 97.5879 235.175C96.6999 235.175 96.0303 234.906 95.5791 234.369C95.1279 233.832 94.9023 233.069 94.9023 232.081V224.873H92.7861V223.337H94.9023V220.522H96.8896ZM103.55 234.96H101.562V223.337H103.55V234.96ZM101.401 220.254C101.401 219.932 101.498 219.66 101.691 219.438C101.892 219.215 102.186 219.104 102.572 219.104C102.959 219.104 103.253 219.215 103.453 219.438C103.654 219.66 103.754 219.932 103.754 220.254C103.754 220.576 103.654 220.845 103.453 221.06C103.253 221.274 102.959 221.382 102.572 221.382C102.186 221.382 101.892 221.274 101.691 221.06C101.498 220.845 101.401 220.576 101.401 220.254ZM111.563 235.175C109.988 235.175 108.706 234.659 107.718 233.628C106.729 232.59 106.235 231.204 106.235 229.471V229.105C106.235 227.952 106.454 226.925 106.891 226.022C107.335 225.113 107.951 224.404 108.738 223.896C109.533 223.38 110.393 223.122 111.316 223.122C112.827 223.122 114.002 223.62 114.84 224.615C115.678 225.611 116.097 227.036 116.097 228.891V229.718H108.223C108.251 230.864 108.584 231.791 109.222 232.5C109.866 233.202 110.683 233.553 111.671 233.553C112.373 233.553 112.967 233.41 113.454 233.123C113.941 232.837 114.367 232.457 114.732 231.984L115.946 232.93C114.972 234.426 113.511 235.175 111.563 235.175ZM111.316 224.755C110.514 224.755 109.841 225.049 109.297 225.636C108.753 226.216 108.416 227.032 108.287 228.085H114.109V227.935C114.052 226.925 113.78 226.144 113.293 225.593C112.806 225.034 112.147 224.755 111.316 224.755ZM125.174 231.877C125.174 231.34 124.97 230.924 124.562 230.631C124.16 230.33 123.455 230.072 122.445 229.857C121.443 229.643 120.644 229.385 120.05 229.084C119.463 228.783 119.026 228.425 118.739 228.01C118.46 227.594 118.32 227.1 118.32 226.527C118.32 225.575 118.721 224.769 119.523 224.11C120.333 223.451 121.364 223.122 122.617 223.122C123.935 223.122 125.002 223.462 125.818 224.143C126.642 224.823 127.054 225.693 127.054 226.753H125.056C125.056 226.209 124.823 225.74 124.357 225.346C123.899 224.952 123.319 224.755 122.617 224.755C121.894 224.755 121.328 224.912 120.92 225.228C120.512 225.543 120.308 225.954 120.308 226.463C120.308 226.943 120.497 227.304 120.877 227.548C121.257 227.791 121.94 228.024 122.929 228.246C123.924 228.468 124.73 228.733 125.346 229.041C125.962 229.349 126.416 229.721 126.71 230.158C127.011 230.588 127.161 231.114 127.161 231.737C127.161 232.776 126.746 233.61 125.915 234.24C125.084 234.863 124.007 235.175 122.682 235.175C121.751 235.175 120.927 235.01 120.211 234.681C119.495 234.351 118.933 233.893 118.524 233.306C118.123 232.711 117.923 232.07 117.923 231.383H119.91C119.946 232.049 120.211 232.579 120.705 232.973C121.206 233.359 121.865 233.553 122.682 233.553C123.434 233.553 124.035 233.402 124.486 233.102C124.945 232.794 125.174 232.385 125.174 231.877ZM142.383 234.96C142.268 234.731 142.175 234.323 142.104 233.735C141.18 234.695 140.077 235.175 138.795 235.175C137.649 235.175 136.707 234.853 135.97 234.208C135.239 233.556 134.874 232.733 134.874 231.737C134.874 230.527 135.332 229.589 136.249 228.923C137.173 228.25 138.469 227.913 140.138 227.913H142.071V227C142.071 226.305 141.864 225.754 141.448 225.346C141.033 224.93 140.421 224.723 139.611 224.723C138.902 224.723 138.308 224.902 137.828 225.26C137.348 225.618 137.108 226.051 137.108 226.56H135.11C135.11 225.979 135.314 225.421 135.723 224.884C136.138 224.34 136.697 223.91 137.398 223.595C138.107 223.28 138.884 223.122 139.729 223.122C141.069 223.122 142.118 223.459 142.877 224.132C143.636 224.798 144.03 225.718 144.059 226.893V232.242C144.059 233.309 144.195 234.158 144.467 234.788V234.96H142.383ZM139.085 233.445C139.708 233.445 140.299 233.284 140.857 232.962C141.416 232.64 141.821 232.221 142.071 231.705V229.32H140.514C138.079 229.32 136.861 230.033 136.861 231.458C136.861 232.081 137.069 232.568 137.484 232.919C137.9 233.27 138.433 233.445 139.085 233.445ZM149.333 234.96H147.346V218.46H149.333V234.96ZM154.683 234.96H152.695V218.46H154.683V234.96ZM170.506 234.96C170.391 234.731 170.298 234.323 170.227 233.735C169.303 234.695 168.2 235.175 166.918 235.175C165.772 235.175 164.83 234.853 164.093 234.208C163.362 233.556 162.997 232.733 162.997 231.737C162.997 230.527 163.455 229.589 164.372 228.923C165.296 228.25 166.592 227.913 168.261 227.913H170.194V227C170.194 226.305 169.987 225.754 169.571 225.346C169.156 224.93 168.544 224.723 167.734 224.723C167.025 224.723 166.431 224.902 165.951 225.26C165.471 225.618 165.231 226.051 165.231 226.56H163.233C163.233 225.979 163.438 225.421 163.846 224.884C164.261 224.34 164.82 223.91 165.521 223.595C166.23 223.28 167.007 223.122 167.853 223.122C169.192 223.122 170.241 223.459 171 224.132C171.759 224.798 172.153 225.718 172.182 226.893V232.242C172.182 233.309 172.318 234.158 172.59 234.788V234.96H170.506ZM167.208 233.445C167.831 233.445 168.422 233.284 168.98 232.962C169.539 232.64 169.944 232.221 170.194 231.705V229.32H168.637C166.202 229.32 164.984 230.033 164.984 231.458C164.984 232.081 165.192 232.568 165.607 232.919C166.023 233.27 166.556 233.445 167.208 233.445ZM180.915 225.12C180.614 225.07 180.288 225.045 179.938 225.045C178.634 225.045 177.75 225.6 177.284 226.71V234.96H175.297V223.337H177.23L177.263 224.68C177.914 223.641 178.838 223.122 180.034 223.122C180.421 223.122 180.715 223.172 180.915 223.272V225.12ZM182.011 229.041C182.011 227.902 182.233 226.878 182.677 225.969C183.128 225.059 183.751 224.357 184.546 223.863C185.348 223.369 186.261 223.122 187.285 223.122C188.868 223.122 190.146 223.67 191.12 224.766C192.101 225.861 192.592 227.319 192.592 229.138V229.277C192.592 230.409 192.373 231.426 191.937 232.328C191.507 233.223 190.887 233.922 190.078 234.423C189.276 234.924 188.352 235.175 187.307 235.175C185.731 235.175 184.453 234.627 183.472 233.531C182.498 232.436 182.011 230.985 182.011 229.181V229.041ZM184.009 229.277C184.009 230.566 184.306 231.601 184.9 232.382C185.502 233.162 186.304 233.553 187.307 233.553C188.316 233.553 189.118 233.159 189.713 232.371C190.307 231.576 190.604 230.466 190.604 229.041C190.604 227.766 190.3 226.735 189.691 225.947C189.09 225.152 188.288 224.755 187.285 224.755C186.304 224.755 185.513 225.145 184.911 225.926C184.31 226.706 184.009 227.824 184.009 229.277ZM202.26 233.811C201.486 234.72 200.351 235.175 198.854 235.175C197.616 235.175 196.67 234.817 196.019 234.101C195.374 233.377 195.048 232.31 195.041 230.899V223.337H197.028V230.846C197.028 232.607 197.744 233.488 199.177 233.488C200.695 233.488 201.705 232.923 202.206 231.791V223.337H204.193V234.96H202.303L202.26 233.811ZM209.103 223.337L209.167 224.798C210.055 223.681 211.215 223.122 212.647 223.122C215.104 223.122 216.343 224.508 216.364 227.279V234.96H214.377V227.269C214.37 226.431 214.176 225.811 213.797 225.41C213.424 225.009 212.841 224.809 212.046 224.809C211.401 224.809 210.836 224.98 210.349 225.324C209.862 225.668 209.482 226.119 209.21 226.678V234.96H207.223V223.337H209.103ZM218.878 229.052C218.878 227.269 219.3 225.836 220.146 224.755C220.991 223.666 222.097 223.122 223.465 223.122C224.826 223.122 225.903 223.588 226.698 224.519V218.46H228.686V234.96H226.859L226.763 233.714C225.968 234.688 224.861 235.175 223.443 235.175C222.097 235.175 220.998 234.623 220.146 233.521C219.3 232.418 218.878 230.978 218.878 229.202V229.052ZM220.865 229.277C220.865 230.595 221.137 231.626 221.682 232.371C222.226 233.116 222.978 233.488 223.938 233.488C225.198 233.488 226.118 232.923 226.698 231.791V226.452C226.104 225.356 225.191 224.809 223.959 224.809C222.985 224.809 222.226 225.185 221.682 225.937C221.137 226.688 220.865 227.802 220.865 229.277ZM239.933 220.522V223.337H242.103V224.873H239.933V232.081C239.933 232.547 240.029 232.897 240.223 233.134C240.416 233.363 240.745 233.478 241.211 233.478C241.44 233.478 241.755 233.435 242.156 233.349V234.96C241.633 235.103 241.125 235.175 240.631 235.175C239.743 235.175 239.073 234.906 238.622 234.369C238.171 233.832 237.945 233.069 237.945 232.081V224.873H235.829V223.337H237.945V220.522H239.933ZM246.421 224.744C247.302 223.663 248.448 223.122 249.858 223.122C252.315 223.122 253.554 224.508 253.575 227.279V234.96H251.588V227.269C251.581 226.431 251.387 225.811 251.008 225.41C250.635 225.009 250.052 224.809 249.257 224.809C248.612 224.809 248.047 224.98 247.56 225.324C247.073 225.668 246.693 226.119 246.421 226.678V234.96H244.434V218.46H246.421V224.744ZM261.374 235.175C259.799 235.175 258.517 234.659 257.528 233.628C256.54 232.59 256.046 231.204 256.046 229.471V229.105C256.046 227.952 256.264 226.925 256.701 226.022C257.145 225.113 257.761 224.404 258.549 223.896C259.344 223.38 260.203 223.122 261.127 223.122C262.638 223.122 263.812 223.62 264.65 224.615C265.488 225.611 265.907 227.036 265.907 228.891V229.718H258.033C258.062 230.864 258.395 231.791 259.032 232.5C259.677 233.202 260.493 233.553 261.481 233.553C262.183 233.553 262.778 233.41 263.265 233.123C263.752 232.837 264.178 232.457 264.543 231.984L265.757 232.93C264.783 234.426 263.322 235.175 261.374 235.175ZM261.127 224.755C260.325 224.755 259.652 225.049 259.107 225.636C258.563 226.216 258.227 227.032 258.098 228.085H263.92V227.935C263.863 226.925 263.59 226.144 263.104 225.593C262.617 225.034 261.958 224.755 261.127 224.755ZM283.965 232.221L286.199 223.337H288.187L284.803 234.96H283.191L280.366 226.151L277.616 234.96H276.005L272.632 223.337H274.608L276.896 232.038L279.604 223.337H281.204L283.965 232.221ZM289.69 229.041C289.69 227.902 289.912 226.878 290.356 225.969C290.808 225.059 291.431 224.357 292.226 223.863C293.028 223.369 293.941 223.122 294.965 223.122C296.548 223.122 297.826 223.67 298.8 224.766C299.781 225.861 300.271 227.319 300.271 229.138V229.277C300.271 230.409 300.053 231.426 299.616 232.328C299.187 233.223 298.567 233.922 297.758 234.423C296.956 234.924 296.032 235.175 294.986 235.175C293.411 235.175 292.132 234.627 291.151 233.531C290.177 232.436 289.69 230.985 289.69 229.181V229.041ZM291.688 229.277C291.688 230.566 291.986 231.601 292.58 232.382C293.182 233.162 293.984 233.553 294.986 233.553C295.996 233.553 296.798 233.159 297.393 232.371C297.987 231.576 298.284 230.466 298.284 229.041C298.284 227.766 297.98 226.735 297.371 225.947C296.77 225.152 295.967 224.755 294.965 224.755C293.984 224.755 293.192 225.145 292.591 225.926C291.989 226.706 291.688 227.824 291.688 229.277ZM308.382 225.12C308.081 225.07 307.755 225.045 307.404 225.045C306.101 225.045 305.216 225.6 304.751 226.71V234.96H302.764V223.337H304.697L304.729 224.68C305.381 223.641 306.305 223.122 307.501 223.122C307.888 223.122 308.181 223.172 308.382 223.272V225.12ZM312.378 234.96H310.391V218.46H312.378V234.96ZM315.085 229.052C315.085 227.269 315.507 225.836 316.353 224.755C317.198 223.666 318.304 223.122 319.672 223.122C321.033 223.122 322.11 223.588 322.905 224.519V218.46H324.893V234.96H323.066L322.97 233.714C322.175 234.688 321.068 235.175 319.65 235.175C318.304 235.175 317.205 234.623 316.353 233.521C315.507 232.418 315.085 230.978 315.085 229.202V229.052ZM317.072 229.277C317.072 230.595 317.344 231.626 317.889 232.371C318.433 233.116 319.185 233.488 320.145 233.488C321.405 233.488 322.325 232.923 322.905 231.791V226.452C322.311 225.356 321.398 224.809 320.166 224.809C319.192 224.809 318.433 225.185 317.889 225.937C317.344 226.688 317.072 227.802 317.072 229.277ZM328.029 233.918C328.029 233.574 328.13 233.288 328.33 233.059C328.538 232.829 328.846 232.715 329.254 232.715C329.662 232.715 329.97 232.829 330.178 233.059C330.393 233.288 330.5 233.574 330.5 233.918C330.5 234.247 330.393 234.523 330.178 234.745C329.97 234.967 329.662 235.078 329.254 235.078C328.846 235.078 328.538 234.967 328.33 234.745C328.13 234.523 328.029 234.247 328.029 233.918Z" fill="#3E4753"/>
<path d="M41.5488 300.62H36.1875L34.9834 303.96H33.2432L38.1299 291.163H39.6064L44.502 303.96H42.7705L41.5488 300.62ZM36.6973 299.231H41.0479L38.8682 293.246L36.6973 299.231ZM47.7363 303.96H46.1104V294.45H47.7363V303.96ZM45.9785 291.928C45.9785 291.664 46.0576 291.441 46.2158 291.26C46.3799 291.078 46.6201 290.987 46.9365 290.987C47.2529 290.987 47.4932 291.078 47.6572 291.26C47.8213 291.441 47.9033 291.664 47.9033 291.928C47.9033 292.191 47.8213 292.411 47.6572 292.587C47.4932 292.763 47.2529 292.851 46.9365 292.851C46.6201 292.851 46.3799 292.763 46.2158 292.587C46.0576 292.411 45.9785 292.191 45.9785 291.928ZM54.9434 295.909C54.6973 295.868 54.4307 295.848 54.1436 295.848C53.0771 295.848 52.3535 296.302 51.9727 297.21V303.96H50.3467V294.45H51.9287L51.9551 295.549C52.4883 294.699 53.2441 294.274 54.2227 294.274C54.5391 294.274 54.7793 294.315 54.9434 294.397V295.909ZM60.5156 299.126C60.5156 297.632 60.8584 296.451 61.5439 295.584C62.2295 294.711 63.1494 294.274 64.3037 294.274C65.4287 294.274 66.3164 294.652 66.9668 295.408L67.0371 294.45H68.5312V307.616H66.9053V303.081C66.249 303.784 65.376 304.136 64.2861 304.136C63.1377 304.136 62.2207 303.69 61.5352 302.8C60.8555 301.903 60.5156 300.717 60.5156 299.24V299.126ZM62.1416 299.311C62.1416 300.4 62.3701 301.256 62.8271 301.877C63.29 302.498 63.9111 302.809 64.6904 302.809C65.6572 302.809 66.3955 302.381 66.9053 301.525V296.867C66.3896 296.029 65.6572 295.61 64.708 295.61C63.9229 295.61 63.2988 295.924 62.8359 296.551C62.373 297.172 62.1416 298.092 62.1416 299.311ZM77.0127 303.02C76.3799 303.764 75.4512 304.136 74.2266 304.136C73.2129 304.136 72.4395 303.843 71.9062 303.257C71.3789 302.665 71.1123 301.792 71.1064 300.638V294.45H72.7324V300.594C72.7324 302.035 73.3184 302.756 74.4902 302.756C75.7324 302.756 76.5586 302.293 76.9688 301.367V294.45H78.5947V303.96H77.0479L77.0127 303.02ZM86.9443 303.96C86.8506 303.772 86.7744 303.438 86.7158 302.958C85.96 303.743 85.0576 304.136 84.0088 304.136C83.0713 304.136 82.3008 303.872 81.6973 303.345C81.0996 302.812 80.8008 302.138 80.8008 301.323C80.8008 300.333 81.1758 299.565 81.9258 299.021C82.6816 298.47 83.7422 298.194 85.1074 298.194H86.6895V297.447C86.6895 296.879 86.5195 296.428 86.1797 296.094C85.8398 295.754 85.3389 295.584 84.6768 295.584C84.0967 295.584 83.6104 295.73 83.2178 296.023C82.8252 296.316 82.6289 296.671 82.6289 297.087H80.9941C80.9941 296.612 81.1611 296.155 81.4951 295.716C81.835 295.271 82.292 294.919 82.8662 294.661C83.4463 294.403 84.082 294.274 84.7734 294.274C85.8691 294.274 86.7275 294.55 87.3486 295.101C87.9697 295.646 88.292 296.398 88.3154 297.359V301.736C88.3154 302.609 88.4268 303.304 88.6494 303.819V303.96H86.9443ZM84.2461 302.721C84.7559 302.721 85.2393 302.589 85.6963 302.325C86.1533 302.062 86.4844 301.719 86.6895 301.297V299.346H85.415C83.4229 299.346 82.4268 299.929 82.4268 301.095C82.4268 301.604 82.5967 302.003 82.9365 302.29C83.2764 302.577 83.7129 302.721 84.2461 302.721ZM92.6309 303.96H91.0049V290.46H92.6309V303.96ZM97.0078 303.96H95.3818V294.45H97.0078V303.96ZM95.25 291.928C95.25 291.664 95.3291 291.441 95.4873 291.26C95.6514 291.078 95.8916 290.987 96.208 290.987C96.5244 290.987 96.7646 291.078 96.9287 291.26C97.0928 291.441 97.1748 291.664 97.1748 291.928C97.1748 292.191 97.0928 292.411 96.9287 292.587C96.7646 292.763 96.5244 292.851 96.208 292.851C95.8916 292.851 95.6514 292.763 95.4873 292.587C95.3291 292.411 95.25 292.191 95.25 291.928ZM101.824 292.147V294.45H103.6V295.707H101.824V301.604C101.824 301.985 101.903 302.272 102.062 302.466C102.22 302.653 102.489 302.747 102.87 302.747C103.058 302.747 103.315 302.712 103.644 302.642V303.96C103.216 304.077 102.8 304.136 102.396 304.136C101.669 304.136 101.121 303.916 100.752 303.477C100.383 303.037 100.198 302.413 100.198 301.604V295.707H98.4668V294.45H100.198V292.147H101.824ZM108.618 301.578L110.833 294.45H112.573L108.75 305.428C108.158 307.01 107.218 307.801 105.929 307.801L105.621 307.774L105.015 307.66V306.342L105.454 306.377C106.005 306.377 106.433 306.266 106.737 306.043C107.048 305.82 107.303 305.413 107.502 304.821L107.862 303.854L104.47 294.45H106.245L108.618 301.578ZM120.264 303.96H118.638V294.45H120.264V303.96ZM118.506 291.928C118.506 291.664 118.585 291.441 118.743 291.26C118.907 291.078 119.147 290.987 119.464 290.987C119.78 290.987 120.021 291.078 120.185 291.26C120.349 291.441 120.431 291.664 120.431 291.928C120.431 292.191 120.349 292.411 120.185 292.587C120.021 292.763 119.78 292.851 119.464 292.851C119.147 292.851 118.907 292.763 118.743 292.587C118.585 292.411 118.506 292.191 118.506 291.928ZM124.412 294.45L124.465 295.646C125.191 294.731 126.141 294.274 127.312 294.274C129.322 294.274 130.336 295.408 130.354 297.676V303.96H128.728V297.667C128.722 296.981 128.563 296.475 128.253 296.146C127.948 295.818 127.471 295.654 126.82 295.654C126.293 295.654 125.83 295.795 125.432 296.076C125.033 296.357 124.723 296.727 124.5 297.184V303.96H122.874V294.45H124.412ZM132.41 299.126C132.41 297.667 132.756 296.495 133.447 295.61C134.139 294.72 135.044 294.274 136.163 294.274C137.276 294.274 138.158 294.655 138.809 295.417V290.46H140.435V303.96H138.94L138.861 302.94C138.211 303.737 137.306 304.136 136.146 304.136C135.044 304.136 134.145 303.685 133.447 302.782C132.756 301.88 132.41 300.702 132.41 299.249V299.126ZM134.036 299.311C134.036 300.389 134.259 301.232 134.704 301.842C135.149 302.451 135.765 302.756 136.55 302.756C137.581 302.756 138.334 302.293 138.809 301.367V296.999C138.322 296.103 137.575 295.654 136.567 295.654C135.771 295.654 135.149 295.962 134.704 296.577C134.259 297.192 134.036 298.104 134.036 299.311ZM146.912 304.136C145.623 304.136 144.574 303.714 143.766 302.87C142.957 302.021 142.553 300.887 142.553 299.469V299.17C142.553 298.227 142.731 297.386 143.089 296.647C143.452 295.903 143.956 295.323 144.601 294.907C145.251 294.485 145.954 294.274 146.71 294.274C147.946 294.274 148.907 294.682 149.593 295.496C150.278 296.311 150.621 297.477 150.621 298.994V299.671H144.179C144.202 300.608 144.475 301.367 144.996 301.947C145.523 302.521 146.191 302.809 147 302.809C147.574 302.809 148.061 302.691 148.459 302.457C148.857 302.223 149.206 301.912 149.505 301.525L150.498 302.299C149.701 303.523 148.506 304.136 146.912 304.136ZM146.71 295.61C146.054 295.61 145.503 295.851 145.058 296.331C144.612 296.806 144.337 297.474 144.231 298.335H148.995V298.212C148.948 297.386 148.726 296.747 148.327 296.296C147.929 295.839 147.39 295.61 146.71 295.61ZM155.701 297.922L157.811 294.45H159.709L156.598 299.152L159.806 303.96H157.925L155.728 300.4L153.53 303.96H151.641L154.849 299.152L151.737 294.45H153.618L155.701 297.922ZM169.72 302.809C170.3 302.809 170.807 302.633 171.24 302.281C171.674 301.93 171.914 301.49 171.961 300.963H173.499C173.47 301.508 173.282 302.026 172.937 302.519C172.591 303.011 172.128 303.403 171.548 303.696C170.974 303.989 170.364 304.136 169.72 304.136C168.425 304.136 167.394 303.705 166.626 302.844C165.864 301.977 165.483 300.793 165.483 299.293V299.021C165.483 298.095 165.653 297.271 165.993 296.551C166.333 295.83 166.819 295.271 167.452 294.872C168.091 294.474 168.844 294.274 169.711 294.274C170.777 294.274 171.662 294.594 172.365 295.232C173.074 295.871 173.452 296.7 173.499 297.72H171.961C171.914 297.104 171.68 296.601 171.258 296.208C170.842 295.81 170.326 295.61 169.711 295.61C168.885 295.61 168.243 295.909 167.786 296.507C167.335 297.099 167.109 297.957 167.109 299.082V299.39C167.109 300.485 167.335 301.329 167.786 301.921C168.237 302.513 168.882 302.809 169.72 302.809ZM174.896 299.117C174.896 298.186 175.078 297.348 175.441 296.604C175.811 295.859 176.32 295.285 176.971 294.881C177.627 294.477 178.374 294.274 179.212 294.274C180.507 294.274 181.553 294.723 182.35 295.619C183.152 296.516 183.554 297.708 183.554 299.196V299.311C183.554 300.236 183.375 301.068 183.018 301.807C182.666 302.539 182.159 303.11 181.497 303.521C180.841 303.931 180.085 304.136 179.229 304.136C177.94 304.136 176.895 303.688 176.092 302.791C175.295 301.895 174.896 300.708 174.896 299.231V299.117ZM176.531 299.311C176.531 300.365 176.774 301.212 177.261 301.851C177.753 302.489 178.409 302.809 179.229 302.809C180.056 302.809 180.712 302.486 181.198 301.842C181.685 301.191 181.928 300.283 181.928 299.117C181.928 298.074 181.679 297.23 181.181 296.586C180.688 295.936 180.032 295.61 179.212 295.61C178.409 295.61 177.762 295.93 177.27 296.568C176.777 297.207 176.531 298.121 176.531 299.311ZM187.122 294.45L187.166 295.505C187.863 294.685 188.804 294.274 189.987 294.274C191.317 294.274 192.223 294.784 192.703 295.804C193.02 295.347 193.43 294.978 193.934 294.696C194.443 294.415 195.044 294.274 195.735 294.274C197.821 294.274 198.882 295.379 198.917 297.588V303.96H197.291V297.685C197.291 297.005 197.136 296.498 196.825 296.164C196.515 295.824 195.993 295.654 195.261 295.654C194.657 295.654 194.156 295.836 193.758 296.199C193.359 296.557 193.128 297.04 193.063 297.649V303.96H191.429V297.729C191.429 296.346 190.752 295.654 189.398 295.654C188.332 295.654 187.603 296.108 187.21 297.017V303.96H185.584V294.45H187.122ZM209.411 299.311C209.411 300.758 209.08 301.924 208.418 302.809C207.756 303.693 206.859 304.136 205.729 304.136C204.574 304.136 203.666 303.77 203.004 303.037V307.616H201.378V294.45H202.863L202.942 295.505C203.604 294.685 204.524 294.274 205.702 294.274C206.845 294.274 207.747 294.705 208.409 295.566C209.077 296.428 209.411 297.626 209.411 299.161V299.311ZM207.785 299.126C207.785 298.054 207.557 297.207 207.1 296.586C206.643 295.965 206.016 295.654 205.219 295.654C204.234 295.654 203.496 296.091 203.004 296.964V301.508C203.49 302.375 204.234 302.809 205.236 302.809C206.016 302.809 206.634 302.501 207.091 301.886C207.554 301.265 207.785 300.345 207.785 299.126ZM217.356 303.96C217.263 303.772 217.187 303.438 217.128 302.958C216.372 303.743 215.47 304.136 214.421 304.136C213.483 304.136 212.713 303.872 212.109 303.345C211.512 302.812 211.213 302.138 211.213 301.323C211.213 300.333 211.588 299.565 212.338 299.021C213.094 298.47 214.154 298.194 215.52 298.194H217.102V297.447C217.102 296.879 216.932 296.428 216.592 296.094C216.252 295.754 215.751 295.584 215.089 295.584C214.509 295.584 214.022 295.73 213.63 296.023C213.237 296.316 213.041 296.671 213.041 297.087H211.406C211.406 296.612 211.573 296.155 211.907 295.716C212.247 295.271 212.704 294.919 213.278 294.661C213.858 294.403 214.494 294.274 215.186 294.274C216.281 294.274 217.14 294.55 217.761 295.101C218.382 295.646 218.704 296.398 218.728 297.359V301.736C218.728 302.609 218.839 303.304 219.062 303.819V303.96H217.356ZM214.658 302.721C215.168 302.721 215.651 302.589 216.108 302.325C216.565 302.062 216.896 301.719 217.102 301.297V299.346H215.827C213.835 299.346 212.839 299.929 212.839 301.095C212.839 301.604 213.009 302.003 213.349 302.29C213.688 302.577 214.125 302.721 214.658 302.721ZM225.873 295.909C225.627 295.868 225.36 295.848 225.073 295.848C224.007 295.848 223.283 296.302 222.902 297.21V303.96H221.276V294.45H222.858L222.885 295.549C223.418 294.699 224.174 294.274 225.152 294.274C225.469 294.274 225.709 294.315 225.873 294.397V295.909ZM232.896 303.96C232.802 303.772 232.726 303.438 232.667 302.958C231.911 303.743 231.009 304.136 229.96 304.136C229.022 304.136 228.252 303.872 227.648 303.345C227.051 302.812 226.752 302.138 226.752 301.323C226.752 300.333 227.127 299.565 227.877 299.021C228.633 298.47 229.693 298.194 231.059 298.194H232.641V297.447C232.641 296.879 232.471 296.428 232.131 296.094C231.791 295.754 231.29 295.584 230.628 295.584C230.048 295.584 229.562 295.73 229.169 296.023C228.776 296.316 228.58 296.671 228.58 297.087H226.945C226.945 296.612 227.112 296.155 227.446 295.716C227.786 295.271 228.243 294.919 228.817 294.661C229.397 294.403 230.033 294.274 230.725 294.274C231.82 294.274 232.679 294.55 233.3 295.101C233.921 295.646 234.243 296.398 234.267 297.359V301.736C234.267 302.609 234.378 303.304 234.601 303.819V303.96H232.896ZM230.197 302.721C230.707 302.721 231.19 302.589 231.647 302.325C232.104 302.062 232.436 301.719 232.641 301.297V299.346H231.366C229.374 299.346 228.378 299.929 228.378 301.095C228.378 301.604 228.548 302.003 228.888 302.29C229.228 302.577 229.664 302.721 230.197 302.721ZM242.353 301.438C242.353 300.998 242.186 300.658 241.852 300.418C241.523 300.172 240.946 299.961 240.12 299.785C239.3 299.609 238.646 299.398 238.16 299.152C237.68 298.906 237.322 298.613 237.088 298.273C236.859 297.934 236.745 297.529 236.745 297.061C236.745 296.281 237.073 295.622 237.729 295.083C238.392 294.544 239.235 294.274 240.261 294.274C241.339 294.274 242.212 294.553 242.88 295.109C243.554 295.666 243.891 296.378 243.891 297.245H242.256C242.256 296.8 242.065 296.416 241.685 296.094C241.31 295.771 240.835 295.61 240.261 295.61C239.669 295.61 239.206 295.739 238.872 295.997C238.538 296.255 238.371 296.592 238.371 297.008C238.371 297.4 238.526 297.696 238.837 297.896C239.147 298.095 239.707 298.285 240.516 298.467C241.33 298.648 241.989 298.865 242.493 299.117C242.997 299.369 243.369 299.674 243.609 300.031C243.855 300.383 243.979 300.813 243.979 301.323C243.979 302.173 243.639 302.855 242.959 303.371C242.279 303.881 241.397 304.136 240.313 304.136C239.552 304.136 238.878 304.001 238.292 303.731C237.706 303.462 237.246 303.087 236.912 302.606C236.584 302.12 236.42 301.596 236.42 301.033H238.046C238.075 301.578 238.292 302.012 238.696 302.334C239.106 302.65 239.646 302.809 240.313 302.809C240.929 302.809 241.421 302.686 241.79 302.439C242.165 302.188 242.353 301.854 242.353 301.438ZM247.863 303.96H246.237V294.45H247.863V303.96ZM246.105 291.928C246.105 291.664 246.185 291.441 246.343 291.26C246.507 291.078 246.747 290.987 247.063 290.987C247.38 290.987 247.62 291.078 247.784 291.26C247.948 291.441 248.03 291.664 248.03 291.928C248.03 292.191 247.948 292.411 247.784 292.587C247.62 292.763 247.38 292.851 247.063 292.851C246.747 292.851 246.507 292.763 246.343 292.587C246.185 292.411 246.105 292.191 246.105 291.928ZM250.043 299.117C250.043 298.186 250.225 297.348 250.588 296.604C250.957 295.859 251.467 295.285 252.117 294.881C252.773 294.477 253.521 294.274 254.358 294.274C255.653 294.274 256.699 294.723 257.496 295.619C258.299 296.516 258.7 297.708 258.7 299.196V299.311C258.7 300.236 258.521 301.068 258.164 301.807C257.812 302.539 257.306 303.11 256.644 303.521C255.987 303.931 255.231 304.136 254.376 304.136C253.087 304.136 252.041 303.688 251.238 302.791C250.441 301.895 250.043 300.708 250.043 299.231V299.117ZM251.678 299.311C251.678 300.365 251.921 301.212 252.407 301.851C252.899 302.489 253.556 302.809 254.376 302.809C255.202 302.809 255.858 302.486 256.345 301.842C256.831 301.191 257.074 300.283 257.074 299.117C257.074 298.074 256.825 297.23 256.327 296.586C255.835 295.936 255.179 295.61 254.358 295.61C253.556 295.61 252.908 295.93 252.416 296.568C251.924 297.207 251.678 298.121 251.678 299.311ZM262.277 294.45L262.33 295.646C263.057 294.731 264.006 294.274 265.178 294.274C267.188 294.274 268.201 295.408 268.219 297.676V303.96H266.593V297.667C266.587 296.981 266.429 296.475 266.118 296.146C265.813 295.818 265.336 295.654 264.686 295.654C264.158 295.654 263.695 295.795 263.297 296.076C262.898 296.357 262.588 296.727 262.365 297.184V303.96H260.739V294.45H262.277ZM283.187 299.311C283.187 300.764 282.853 301.933 282.185 302.817C281.517 303.696 280.62 304.136 279.495 304.136C278.294 304.136 277.365 303.711 276.709 302.861L276.63 303.96H275.136V290.46H276.762V295.496C277.418 294.682 278.323 294.274 279.478 294.274C280.632 294.274 281.537 294.711 282.193 295.584C282.855 296.457 283.187 297.652 283.187 299.17V299.311ZM281.561 299.126C281.561 298.019 281.347 297.163 280.919 296.56C280.491 295.956 279.876 295.654 279.073 295.654C278.001 295.654 277.23 296.152 276.762 297.148V301.262C277.26 302.258 278.036 302.756 279.091 302.756C279.87 302.756 280.477 302.454 280.91 301.851C281.344 301.247 281.561 300.339 281.561 299.126ZM289.189 304.136C287.9 304.136 286.852 303.714 286.043 302.87C285.234 302.021 284.83 300.887 284.83 299.469V299.17C284.83 298.227 285.009 297.386 285.366 296.647C285.729 295.903 286.233 295.323 286.878 294.907C287.528 294.485 288.231 294.274 288.987 294.274C290.224 294.274 291.185 294.682 291.87 295.496C292.556 296.311 292.898 297.477 292.898 298.994V299.671H286.456C286.479 300.608 286.752 301.367 287.273 301.947C287.801 302.521 288.469 302.809 289.277 302.809C289.852 302.809 290.338 302.691 290.736 302.457C291.135 302.223 291.483 301.912 291.782 301.525L292.775 302.299C291.979 303.523 290.783 304.136 289.189 304.136ZM288.987 295.61C288.331 295.61 287.78 295.851 287.335 296.331C286.89 296.806 286.614 297.474 286.509 298.335H291.272V298.212C291.226 297.386 291.003 296.747 290.604 296.296C290.206 295.839 289.667 295.61 288.987 295.61ZM296.994 292.147V294.45H298.77V295.707H296.994V301.604C296.994 301.985 297.073 302.272 297.231 302.466C297.39 302.653 297.659 302.747 298.04 302.747C298.228 302.747 298.485 302.712 298.813 302.642V303.96C298.386 304.077 297.97 304.136 297.565 304.136C296.839 304.136 296.291 303.916 295.922 303.477C295.553 303.037 295.368 302.413 295.368 301.604V295.707H293.637V294.45H295.368V292.147H296.994ZM309.097 301.719L310.925 294.45H312.551L309.782 303.96H308.464L306.152 296.753L303.902 303.96H302.584L299.824 294.45H301.441L303.313 301.569L305.528 294.45H306.838L309.097 301.719ZM318.158 304.136C316.869 304.136 315.82 303.714 315.012 302.87C314.203 302.021 313.799 300.887 313.799 299.469V299.17C313.799 298.227 313.978 297.386 314.335 296.647C314.698 295.903 315.202 295.323 315.847 294.907C316.497 294.485 317.2 294.274 317.956 294.274C319.192 294.274 320.153 294.682 320.839 295.496C321.524 296.311 321.867 297.477 321.867 298.994V299.671H315.425C315.448 300.608 315.721 301.367 316.242 301.947C316.77 302.521 317.438 302.809 318.246 302.809C318.82 302.809 319.307 302.691 319.705 302.457C320.104 302.223 320.452 301.912 320.751 301.525L321.744 302.299C320.947 303.523 319.752 304.136 318.158 304.136ZM317.956 295.61C317.3 295.61 316.749 295.851 316.304 296.331C315.858 296.806 315.583 297.474 315.478 298.335H320.241V298.212C320.194 297.386 319.972 296.747 319.573 296.296C319.175 295.839 318.636 295.61 317.956 295.61ZM327.703 304.136C326.414 304.136 325.365 303.714 324.557 302.87C323.748 302.021 323.344 300.887 323.344 299.469V299.17C323.344 298.227 323.522 297.386 323.88 296.647C324.243 295.903 324.747 295.323 325.392 294.907C326.042 294.485 326.745 294.274 327.501 294.274C328.737 294.274 329.698 294.682 330.384 295.496C331.069 296.311 331.412 297.477 331.412 298.994V299.671H324.97C324.993 300.608 325.266 301.367 325.787 301.947C326.314 302.521 326.982 302.809 327.791 302.809C328.365 302.809 328.852 302.691 329.25 302.457C329.648 302.223 329.997 301.912 330.296 301.525L331.289 302.299C330.492 303.523 329.297 304.136 327.703 304.136ZM327.501 295.61C326.845 295.61 326.294 295.851 325.849 296.331C325.403 296.806 325.128 297.474 325.022 298.335H329.786V298.212C329.739 297.386 329.517 296.747 329.118 296.296C328.72 295.839 328.181 295.61 327.501 295.61ZM334.84 294.45L334.893 295.646C335.619 294.731 336.568 294.274 337.74 294.274C339.75 294.274 340.764 295.408 340.781 297.676V303.96H339.155V297.667C339.149 296.981 338.991 296.475 338.681 296.146C338.376 295.818 337.898 295.654 337.248 295.654C336.721 295.654 336.258 295.795 335.859 296.076C335.461 296.357 335.15 296.727 334.928 297.184V303.96H333.302V294.45H334.84ZM134.335 322.438C134.335 321.998 134.168 321.658 133.834 321.418C133.506 321.172 132.929 320.961 132.103 320.785C131.282 320.609 130.629 320.398 130.143 320.152C129.662 319.906 129.305 319.613 129.07 319.273C128.842 318.934 128.728 318.529 128.728 318.061C128.728 317.281 129.056 316.622 129.712 316.083C130.374 315.544 131.218 315.274 132.243 315.274C133.321 315.274 134.194 315.553 134.862 316.109C135.536 316.666 135.873 317.378 135.873 318.245H134.238C134.238 317.8 134.048 317.416 133.667 317.094C133.292 316.771 132.817 316.61 132.243 316.61C131.651 316.61 131.188 316.739 130.854 316.997C130.521 317.255 130.354 317.592 130.354 318.008C130.354 318.4 130.509 318.696 130.819 318.896C131.13 319.095 131.689 319.285 132.498 319.467C133.312 319.648 133.972 319.865 134.476 320.117C134.979 320.369 135.352 320.674 135.592 321.031C135.838 321.383 135.961 321.813 135.961 322.323C135.961 323.173 135.621 323.855 134.941 324.371C134.262 324.881 133.38 325.136 132.296 325.136C131.534 325.136 130.86 325.001 130.274 324.731C129.688 324.462 129.229 324.087 128.895 323.606C128.566 323.12 128.402 322.596 128.402 322.033H130.028C130.058 322.578 130.274 323.012 130.679 323.334C131.089 323.65 131.628 323.809 132.296 323.809C132.911 323.809 133.403 323.686 133.772 323.439C134.147 323.188 134.335 322.854 134.335 322.438ZM142.025 325.136C140.736 325.136 139.688 324.714 138.879 323.87C138.07 323.021 137.666 321.887 137.666 320.469V320.17C137.666 319.227 137.845 318.386 138.202 317.647C138.565 316.903 139.069 316.323 139.714 315.907C140.364 315.485 141.067 315.274 141.823 315.274C143.06 315.274 144.021 315.682 144.706 316.496C145.392 317.311 145.734 318.477 145.734 319.994V320.671H139.292C139.315 321.608 139.588 322.367 140.109 322.947C140.637 323.521 141.305 323.809 142.113 323.809C142.688 323.809 143.174 323.691 143.572 323.457C143.971 323.223 144.319 322.912 144.618 322.525L145.611 323.299C144.814 324.523 143.619 325.136 142.025 325.136ZM141.823 316.61C141.167 316.61 140.616 316.851 140.171 317.331C139.726 317.806 139.45 318.474 139.345 319.335H144.108V319.212C144.062 318.386 143.839 317.747 143.44 317.296C143.042 316.839 142.503 316.61 141.823 316.61ZM149.391 324.96H147.765V311.46H149.391V324.96ZM155.947 325.136C154.658 325.136 153.609 324.714 152.801 323.87C151.992 323.021 151.588 321.887 151.588 320.469V320.17C151.588 319.227 151.767 318.386 152.124 317.647C152.487 316.903 152.991 316.323 153.636 315.907C154.286 315.485 154.989 315.274 155.745 315.274C156.981 315.274 157.942 315.682 158.628 316.496C159.313 317.311 159.656 318.477 159.656 319.994V320.671H153.214C153.237 321.608 153.51 322.367 154.031 322.947C154.559 323.521 155.227 323.809 156.035 323.809C156.609 323.809 157.096 323.691 157.494 323.457C157.893 323.223 158.241 322.912 158.54 322.525L159.533 323.299C158.736 324.523 157.541 325.136 155.947 325.136ZM155.745 316.61C155.089 316.61 154.538 316.851 154.093 317.331C153.647 317.806 153.372 318.474 153.267 319.335H158.03V319.212C157.983 318.386 157.761 317.747 157.362 317.296C156.964 316.839 156.425 316.61 155.745 316.61ZM165.36 323.809C165.94 323.809 166.447 323.633 166.881 323.281C167.314 322.93 167.555 322.49 167.602 321.963H169.14C169.11 322.508 168.923 323.026 168.577 323.519C168.231 324.011 167.769 324.403 167.188 324.696C166.614 324.989 166.005 325.136 165.36 325.136C164.065 325.136 163.034 324.705 162.267 323.844C161.505 322.977 161.124 321.793 161.124 320.293V320.021C161.124 319.095 161.294 318.271 161.634 317.551C161.974 316.83 162.46 316.271 163.093 315.872C163.731 315.474 164.484 315.274 165.352 315.274C166.418 315.274 167.303 315.594 168.006 316.232C168.715 316.871 169.093 317.7 169.14 318.72H167.602C167.555 318.104 167.32 317.601 166.898 317.208C166.482 316.81 165.967 316.61 165.352 316.61C164.525 316.61 163.884 316.909 163.427 317.507C162.976 318.099 162.75 318.957 162.75 320.082V320.39C162.75 321.485 162.976 322.329 163.427 322.921C163.878 323.513 164.522 323.809 165.36 323.809ZM173.174 313.147V315.45H174.949V316.707H173.174V322.604C173.174 322.985 173.253 323.272 173.411 323.466C173.569 323.653 173.839 323.747 174.22 323.747C174.407 323.747 174.665 323.712 174.993 323.642V324.96C174.565 325.077 174.149 325.136 173.745 325.136C173.019 325.136 172.471 324.916 172.102 324.477C171.732 324.037 171.548 323.413 171.548 322.604V316.707H169.816V315.45H171.548V313.147H173.174ZM180.803 325.136C179.514 325.136 178.465 324.714 177.656 323.87C176.848 323.021 176.443 321.887 176.443 320.469V320.17C176.443 319.227 176.622 318.386 176.979 317.647C177.343 316.903 177.847 316.323 178.491 315.907C179.142 315.485 179.845 315.274 180.601 315.274C181.837 315.274 182.798 315.682 183.483 316.496C184.169 317.311 184.512 318.477 184.512 319.994V320.671H178.069C178.093 321.608 178.365 322.367 178.887 322.947C179.414 323.521 180.082 323.809 180.891 323.809C181.465 323.809 181.951 323.691 182.35 323.457C182.748 323.223 183.097 322.912 183.396 322.525L184.389 323.299C183.592 324.523 182.396 325.136 180.803 325.136ZM180.601 316.61C179.944 316.61 179.394 316.851 178.948 317.331C178.503 317.806 178.228 318.474 178.122 319.335H182.886V319.212C182.839 318.386 182.616 317.747 182.218 317.296C181.819 316.839 181.28 316.61 180.601 316.61ZM186.006 320.126C186.006 318.667 186.352 317.495 187.043 316.61C187.734 315.72 188.64 315.274 189.759 315.274C190.872 315.274 191.754 315.655 192.404 316.417V311.46H194.03V324.96H192.536L192.457 323.94C191.807 324.737 190.901 325.136 189.741 325.136C188.64 325.136 187.74 324.685 187.043 323.782C186.352 322.88 186.006 321.702 186.006 320.249V320.126ZM187.632 320.311C187.632 321.389 187.854 322.232 188.3 322.842C188.745 323.451 189.36 323.756 190.146 323.756C191.177 323.756 191.93 323.293 192.404 322.367V317.999C191.918 317.103 191.171 316.654 190.163 316.654C189.366 316.654 188.745 316.962 188.3 317.577C187.854 318.192 187.632 319.104 187.632 320.311ZM204.841 323.809C205.421 323.809 205.928 323.633 206.361 323.281C206.795 322.93 207.035 322.49 207.082 321.963H208.62C208.591 322.508 208.403 323.026 208.058 323.519C207.712 324.011 207.249 324.403 206.669 324.696C206.095 324.989 205.485 325.136 204.841 325.136C203.546 325.136 202.515 324.705 201.747 323.844C200.985 322.977 200.604 321.793 200.604 320.293V320.021C200.604 319.095 200.774 318.271 201.114 317.551C201.454 316.83 201.94 316.271 202.573 315.872C203.212 315.474 203.965 315.274 204.832 315.274C205.898 315.274 206.783 315.594 207.486 316.232C208.195 316.871 208.573 317.7 208.62 318.72H207.082C207.035 318.104 206.801 317.601 206.379 317.208C205.963 316.81 205.447 316.61 204.832 316.61C204.006 316.61 203.364 316.909 202.907 317.507C202.456 318.099 202.23 318.957 202.23 320.082V320.39C202.23 321.485 202.456 322.329 202.907 322.921C203.358 323.513 204.003 323.809 204.841 323.809ZM212.215 324.96H210.589V315.45H212.215V324.96ZM210.457 312.928C210.457 312.664 210.536 312.441 210.694 312.26C210.858 312.078 211.099 311.987 211.415 311.987C211.731 311.987 211.972 312.078 212.136 312.26C212.3 312.441 212.382 312.664 212.382 312.928C212.382 313.191 212.3 313.411 212.136 313.587C211.972 313.763 211.731 313.851 211.415 313.851C211.099 313.851 210.858 313.763 210.694 313.587C210.536 313.411 210.457 313.191 210.457 312.928ZM217.031 313.147V315.45H218.807V316.707H217.031V322.604C217.031 322.985 217.11 323.272 217.269 323.466C217.427 323.653 217.696 323.747 218.077 323.747C218.265 323.747 218.522 323.712 218.851 323.642V324.96C218.423 325.077 218.007 325.136 217.603 325.136C216.876 325.136 216.328 324.916 215.959 324.477C215.59 324.037 215.405 323.413 215.405 322.604V316.707H213.674V315.45H215.405V313.147H217.031ZM222.48 324.96H220.854V315.45H222.48V324.96ZM220.723 312.928C220.723 312.664 220.802 312.441 220.96 312.26C221.124 312.078 221.364 311.987 221.681 311.987C221.997 311.987 222.237 312.078 222.401 312.26C222.565 312.441 222.647 312.664 222.647 312.928C222.647 313.191 222.565 313.411 222.401 313.587C222.237 313.763 221.997 313.851 221.681 313.851C221.364 313.851 221.124 313.763 220.96 313.587C220.802 313.411 220.723 313.191 220.723 312.928ZM229.037 325.136C227.748 325.136 226.699 324.714 225.891 323.87C225.082 323.021 224.678 321.887 224.678 320.469V320.17C224.678 319.227 224.856 318.386 225.214 317.647C225.577 316.903 226.081 316.323 226.726 315.907C227.376 315.485 228.079 315.274 228.835 315.274C230.071 315.274 231.032 315.682 231.718 316.496C232.403 317.311 232.746 318.477 232.746 319.994V320.671H226.304C226.327 321.608 226.6 322.367 227.121 322.947C227.648 323.521 228.316 323.809 229.125 323.809C229.699 323.809 230.186 323.691 230.584 323.457C230.982 323.223 231.331 322.912 231.63 322.525L232.623 323.299C231.826 324.523 230.631 325.136 229.037 325.136ZM228.835 316.61C228.179 316.61 227.628 316.851 227.183 317.331C226.737 317.806 226.462 318.474 226.356 319.335H231.12V319.212C231.073 318.386 230.851 317.747 230.452 317.296C230.054 316.839 229.515 316.61 228.835 316.61ZM240.173 322.438C240.173 321.998 240.006 321.658 239.672 321.418C239.344 321.172 238.767 320.961 237.94 320.785C237.12 320.609 236.467 320.398 235.98 320.152C235.5 319.906 235.143 319.613 234.908 319.273C234.68 318.934 234.565 318.529 234.565 318.061C234.565 317.281 234.894 316.622 235.55 316.083C236.212 315.544 237.056 315.274 238.081 315.274C239.159 315.274 240.032 315.553 240.7 316.109C241.374 316.666 241.711 317.378 241.711 318.245H240.076C240.076 317.8 239.886 317.416 239.505 317.094C239.13 316.771 238.655 316.61 238.081 316.61C237.489 316.61 237.026 316.739 236.692 316.997C236.358 317.255 236.191 317.592 236.191 318.008C236.191 318.4 236.347 318.696 236.657 318.896C236.968 319.095 237.527 319.285 238.336 319.467C239.15 319.648 239.81 319.865 240.313 320.117C240.817 320.369 241.189 320.674 241.43 321.031C241.676 321.383 241.799 321.813 241.799 322.323C241.799 323.173 241.459 323.855 240.779 324.371C240.1 324.881 239.218 325.136 238.134 325.136C237.372 325.136 236.698 325.001 236.112 324.731C235.526 324.462 235.066 324.087 234.732 323.606C234.404 323.12 234.24 322.596 234.24 322.033H235.866C235.896 322.578 236.112 323.012 236.517 323.334C236.927 323.65 237.466 323.809 238.134 323.809C238.749 323.809 239.241 323.686 239.61 323.439C239.985 323.188 240.173 322.854 240.173 322.438ZM243.952 324.107C243.952 323.826 244.034 323.592 244.198 323.404C244.368 323.217 244.62 323.123 244.954 323.123C245.288 323.123 245.54 323.217 245.71 323.404C245.886 323.592 245.974 323.826 245.974 324.107C245.974 324.377 245.886 324.603 245.71 324.784C245.54 324.966 245.288 325.057 244.954 325.057C244.62 325.057 244.368 324.966 244.198 324.784C244.034 324.603 243.952 324.377 243.952 324.107Z" fill="#3E4753"/>
<rect x="123" y="364.96" width="130" height="40" rx="3" fill="#FD5C63"/>
<path d="M167.989 387.664C167.989 387.102 167.79 386.668 167.392 386.363C166.999 386.059 166.287 385.751 165.256 385.44C164.225 385.13 163.404 384.784 162.795 384.403C161.629 383.671 161.046 382.716 161.046 381.538C161.046 380.507 161.465 379.657 162.303 378.989C163.146 378.321 164.239 377.987 165.581 377.987C166.472 377.987 167.266 378.151 167.963 378.479C168.66 378.808 169.208 379.276 169.606 379.886C170.005 380.489 170.204 381.16 170.204 381.898H167.989C167.989 381.23 167.778 380.709 167.356 380.334C166.94 379.953 166.343 379.763 165.563 379.763C164.837 379.763 164.271 379.918 163.867 380.229C163.469 380.539 163.27 380.973 163.27 381.529C163.27 381.998 163.486 382.391 163.92 382.707C164.354 383.018 165.068 383.322 166.064 383.621C167.061 383.914 167.86 384.251 168.464 384.632C169.067 385.007 169.51 385.44 169.791 385.933C170.072 386.419 170.213 386.99 170.213 387.646C170.213 388.713 169.803 389.562 168.982 390.195C168.168 390.822 167.061 391.136 165.66 391.136C164.734 391.136 163.882 390.966 163.103 390.626C162.329 390.28 161.726 389.806 161.292 389.202C160.864 388.599 160.65 387.896 160.65 387.093H162.874C162.874 387.819 163.114 388.382 163.595 388.78C164.075 389.179 164.764 389.378 165.66 389.378C166.434 389.378 167.014 389.223 167.4 388.912C167.793 388.596 167.989 388.18 167.989 387.664ZM181.41 379.956H177.42V390.96H175.214V379.956H171.259V378.163H181.41V379.956ZM189.206 387.98H184.249L183.212 390.96H180.9L185.734 378.163H187.729L192.572 390.96H190.252L189.206 387.98ZM184.873 386.188H188.582L186.728 380.879L184.873 386.188ZM198.733 386.029H196.255V390.96H194.031V378.163H198.531C200.008 378.163 201.147 378.494 201.95 379.156C202.753 379.818 203.154 380.776 203.154 382.03C203.154 382.886 202.946 383.604 202.53 384.184C202.12 384.758 201.546 385.2 200.808 385.511L203.682 390.846V390.96H201.3L198.733 386.029ZM196.255 384.245H198.54C199.29 384.245 199.876 384.058 200.298 383.683C200.72 383.302 200.931 382.783 200.931 382.127C200.931 381.441 200.734 380.911 200.342 380.536C199.955 380.161 199.375 379.968 198.602 379.956H196.255V384.245ZM214.07 379.956H210.08V390.96H207.874V379.956H203.919V378.163H214.07V379.956Z" fill="#F9FBFF"/>
<path d="M182.085 266.8C182.085 266.048 182.293 265.357 182.708 264.727C183.131 264.096 183.933 263.362 185.114 262.524C184.42 261.679 183.954 260.999 183.718 260.483C183.481 259.968 183.363 259.456 183.363 258.947C183.363 257.758 183.714 256.827 184.416 256.154C185.118 255.481 186.07 255.145 187.273 255.145C188.348 255.145 189.236 255.46 189.938 256.09C190.639 256.713 190.99 257.501 190.99 258.453C190.99 259.083 190.829 259.667 190.507 260.204C190.192 260.734 189.637 261.293 188.842 261.88L187.692 262.729L191.173 266.886C191.66 265.955 191.903 264.92 191.903 263.781H193.697C193.697 265.607 193.257 267.122 192.376 268.325L194.61 271H192.226L191.184 269.765C190.654 270.237 190.031 270.599 189.314 270.85C188.605 271.093 187.882 271.215 187.145 271.215C185.619 271.215 184.395 270.81 183.471 270.001C182.547 269.192 182.085 268.125 182.085 266.8ZM187.145 269.593C188.197 269.593 189.16 269.192 190.034 268.39L186.221 263.824L185.866 264.082C184.67 264.963 184.072 265.869 184.072 266.8C184.072 267.645 184.344 268.322 184.889 268.83C185.44 269.339 186.192 269.593 187.145 269.593ZM185.351 258.883C185.351 259.57 185.773 260.43 186.618 261.461L187.886 260.569C188.373 260.226 188.706 259.9 188.885 259.592C189.064 259.277 189.153 258.897 189.153 258.453C189.153 257.973 188.974 257.576 188.616 257.261C188.258 256.938 187.807 256.777 187.263 256.777C186.675 256.777 186.21 256.978 185.866 257.379C185.522 257.773 185.351 258.274 185.351 258.883Z" fill="#3E4753"/>
</g>
<defs>
<clipPath id="clip0">
<rect width="375" height="667" fill="white"/>
</clipPath>
</defs>
</svg>
