<svg width="32" height="32" viewBox="0 0 32 32" fill="none" xmlns="http://www.w3.org/2000/svg">
<path d="M15.9998 3.58643L23.5465 11.1331C25.039 12.6246 26.0556 14.5252 26.4677 16.5945C26.8799 18.6638 26.669 20.8089 25.8619 22.7584C25.0548 24.7079 23.6876 26.3742 21.9333 27.5466C20.1791 28.7189 18.1165 29.3447 16.0065 29.3447C13.8966 29.3447 11.834 28.7189 10.0797 27.5466C8.32543 26.3742 6.95826 24.7079 6.15113 22.7584C5.344 20.8089 5.13317 18.6638 5.54532 16.5945C5.95746 14.5252 6.97406 12.6246 8.46652 11.1331L15.9998 3.58643Z" stroke="#439EA1" stroke-linecap="round" stroke-linejoin="round"/>
<path d="M10.9375 14.8125C10.9375 14.1354 11.1458 13.5755 11.5625 13.1328C11.9844 12.6849 12.5182 12.4609 13.1641 12.4609C13.8099 12.4609 14.3411 12.6849 14.7578 13.1328C15.1797 13.5755 15.3906 14.151 15.3906 14.8594V15.4141C15.3906 16.0807 15.1823 16.638 14.7656 17.0859C14.3542 17.5286 13.8255 17.75 13.1797 17.75C12.5391 17.75 12.0052 17.5312 11.5781 17.0938C11.151 16.6562 10.9375 16.0781 10.9375 15.3594V14.8125ZM11.6953 15.4141C11.6953 15.8984 11.8281 16.2969 12.0938 16.6094C12.3646 16.9219 12.7266 17.0781 13.1797 17.0781C13.6224 17.0781 13.974 16.9219 14.2344 16.6094C14.5 16.2917 14.6328 15.8828 14.6328 15.3828V14.8125C14.6328 14.3281 14.4974 13.9297 14.2266 13.6172C13.9557 13.2995 13.6016 13.1406 13.1641 13.1406C12.7318 13.1406 12.3776 13.2969 12.1016 13.6094C11.8307 13.9219 11.6953 14.3385 11.6953 14.8594V15.4141ZM16.6641 21.2109C16.6641 20.5339 16.8724 19.974 17.2891 19.5312C17.7109 19.0885 18.2422 18.8672 18.8828 18.8672C19.5234 18.8672 20.0547 19.0885 20.4766 19.5312C20.9036 19.9688 21.1172 20.5469 21.1172 21.2656V21.8203C21.1172 22.4974 20.9062 23.0573 20.4844 23.5C20.0677 23.9427 19.5391 24.1641 18.8984 24.1641C18.2578 24.1641 17.724 23.9453 17.2969 23.5078C16.875 23.0651 16.6641 22.4896 16.6641 21.7812V21.2109ZM17.4141 21.8203C17.4141 22.3099 17.5469 22.7109 17.8125 23.0234C18.0833 23.3359 18.4453 23.4922 18.8984 23.4922C19.3464 23.4922 19.7005 23.3359 19.9609 23.0234C20.2266 22.7057 20.3594 22.2917 20.3594 21.7812V21.2109C20.3594 20.7109 20.224 20.3099 19.9531 20.0078C19.6875 19.7005 19.3307 19.5469 18.8828 19.5469C18.4453 19.5469 18.0911 19.7005 17.8203 20.0078C17.5495 20.3151 17.4141 20.7266 17.4141 21.2422V21.8203ZM13.4766 23.0547L12.8906 22.6797L18.4453 13.7891L19.0312 14.1641L13.4766 23.0547Z" fill="#439EA1"/>
</svg>
