<svg width="134" height="50" viewBox="0 0 134 50" fill="none" xmlns="http://www.w3.org/2000/svg">
<path d="M11.4769 25.8926H1.17174C0.527204 25.8926 0.446289 25.1979 0.446289 24.5533V22.7676C0.446289 22.123 0.527204 21.2051 1.17174 21.2051H11.5867C12.7513 21.2051 13.8426 20.4068 14.0331 19.2569C14.2748 17.7921 13.1468 16.5176 11.7186 16.5176C10.6859 16.5176 9.807 17.1914 9.49209 18.1216C9.33825 18.583 8.51898 19.2569 8.03558 19.2569H5.80343C5.08566 19.2569 4.68004 18.2168 4.81187 17.5137C5.44175 14.2838 8.2982 11.8301 11.7113 11.8301C15.8934 11.8301 19.2333 15.4996 18.684 19.7842C18.2372 23.3291 15.0438 25.8926 11.4769 25.8926ZM1.17174 28.2363H25.7811C30.1537 28.2363 33.6033 32.25 32.6512 36.7838C32.0946 39.4351 29.9486 41.5811 27.2972 42.1377C23.2396 42.9873 19.5995 40.314 18.8817 36.608C18.7425 35.9048 19.3787 34.8721 20.0891 34.8721H22.4413C22.932 34.8721 23.4008 35.5459 23.5546 36.0073C23.8695 36.9375 24.7484 37.6113 25.7811 37.6113C27.202 37.6113 28.3373 36.337 28.0956 34.8721C27.9051 33.7222 26.8211 32.9238 25.6492 32.9238H1.17174C0.527204 32.9238 0.446289 32.3407 0.446289 31.6962V29.464C0.446289 28.8195 0.527204 28.2363 1.17174 28.2363ZM29.2967 25.8926H17.857C19.2706 24.6768 21.1083 23.0508 21.5917 21.2051H29.2967C31.2376 21.2051 32.8124 19.6304 32.8124 17.6895C32.8124 15.7486 31.2376 14.1739 29.2967 14.1739C27.9857 14.1739 26.8578 14.8989 26.2499 15.961C26.0375 16.3272 24.9783 16.964 24.5534 16.964H22.4413C21.6429 16.964 21.3207 15.7266 21.5917 14.9722C22.8954 11.2662 26.7552 8.76126 31.0692 9.6768C34.0867 10.314 36.5697 12.7237 37.2728 15.7339C38.5252 21.0953 34.4603 25.8926 29.2967 25.8926Z" fill="#FD5C63"/>
<path d="M63.6718 33.0076H52.6646L50.5719 39.2854H43.8965L55.2385 8.81669H61.056L72.4609 39.2854H65.7854L63.6718 33.0076ZM54.3596 27.9224H61.9768L58.1473 16.5176L54.3596 27.9224ZM81.2918 39.2854H75.2232V16.6431H81.2918V39.2854ZM74.8675 10.7837C74.8675 9.87695 75.1674 9.13061 75.7673 8.54464C76.3811 7.9587 77.2112 7.66574 78.2575 7.66574C79.2899 7.66574 80.113 7.9587 80.7268 8.54464C81.3407 9.13061 81.6475 9.87695 81.6475 10.7837C81.6475 11.7045 81.3337 12.4578 80.7059 13.0438C80.092 13.6297 79.2759 13.9228 78.2575 13.9228C77.2391 13.9228 76.4159 13.6297 75.7882 13.0438C75.1743 12.4578 74.8675 11.7045 74.8675 10.7837ZM99.016 22.3142C98.1937 22.2026 97.4678 22.1468 96.8401 22.1468C94.5517 22.1468 93.0526 22.9211 92.341 24.4695V39.2854H86.2932V16.6431H92.0062L92.1732 19.3427C93.3875 17.2639 95.0687 16.2246 97.2169 16.2246C97.8866 16.2246 98.5142 16.3153 99.1 16.4967L99.016 22.3142ZM108.329 39.2854H102.26V7.14258H108.329V39.2854ZM121.784 30.7266L125.97 16.6431H132.457L123.354 42.8011L122.852 43.9938C121.498 46.9514 119.266 48.4303 116.155 48.4303C115.276 48.4303 114.383 48.2978 113.477 48.0327V43.4498L114.397 43.4707C115.541 43.4707 116.392 43.2963 116.95 42.9476C117.522 42.5987 117.969 42.0198 118.289 41.2106L119.001 39.3482L111.07 16.6431H117.579L121.784 30.7266Z" fill="#F9FBFF"/>
</svg>
