<svg width="134" height="50" viewBox="0 0 134 50" fill="none" xmlns="http://www.w3.org/2000/svg">
<path d="M11.477 25.8926H1.17186C0.527326 25.8926 0.446411 25.1979 0.446411 24.5533V22.7676C0.446411 22.123 0.527326 21.2051 1.17186 21.2051H11.5869C12.7514 21.2051 13.8428 20.4068 14.0332 19.2569C14.2749 17.7921 13.1469 16.5176 11.7187 16.5176C10.6861 16.5176 9.80713 17.1914 9.49222 18.1216C9.33838 18.583 8.5191 19.2569 8.0357 19.2569H5.80355C5.08578 19.2569 4.68016 18.2168 4.81199 17.5137C5.44188 14.2838 8.29832 11.8301 11.7114 11.8301C15.8936 11.8301 19.2334 15.4996 18.6841 19.7842C18.2373 23.3291 15.0439 25.8926 11.477 25.8926ZM1.17186 28.2363H25.7812C30.1538 28.2363 33.6035 32.25 32.6513 36.7838C32.0947 39.4351 29.9487 41.5811 27.2973 42.1377C23.2397 42.9873 19.5996 40.314 18.8819 36.608C18.7427 35.9048 19.3788 34.8721 20.0893 34.8721H22.4414C22.9321 34.8721 23.4009 35.5459 23.5547 36.0073C23.8696 36.9375 24.7486 37.6113 25.7812 37.6113C27.2021 37.6113 28.3374 36.337 28.0957 34.8721C27.9053 33.7222 26.8212 32.9238 25.6494 32.9238H1.17186C0.527326 32.9238 0.446411 32.3407 0.446411 31.6962V29.464C0.446411 28.8195 0.527326 28.2363 1.17186 28.2363ZM29.2969 25.8926H17.8571C19.2707 24.6768 21.1084 23.0508 21.5918 21.2051H29.2969C31.2378 21.2051 32.8125 19.6304 32.8125 17.6895C32.8125 15.7486 31.2378 14.1739 29.2969 14.1739C27.9858 14.1739 26.8579 14.8989 26.25 15.961C26.0376 16.3272 24.9784 16.964 24.5536 16.964H22.4414C21.643 16.964 21.3208 15.7266 21.5918 14.9722C22.8955 11.2662 26.7553 8.76126 31.0694 9.6768C34.0869 10.314 36.5698 12.7237 37.2729 15.7339C38.5253 21.0953 34.4604 25.8926 29.2969 25.8926Z" fill="#FD5C63"/>
<path d="M63.6718 33.0076H52.6646L50.5719 39.2854H43.8965L55.2385 8.81669H61.056L72.4609 39.2854H65.7854L63.6718 33.0076ZM54.3596 27.9224H61.9768L58.1473 16.5176L54.3596 27.9224ZM81.2918 39.2854H75.2232V16.6431H81.2918V39.2854ZM74.8675 10.7837C74.8675 9.87695 75.1674 9.13061 75.7673 8.54464C76.3811 7.9587 77.2112 7.66574 78.2575 7.66574C79.2899 7.66574 80.113 7.9587 80.7268 8.54464C81.3407 9.13061 81.6475 9.87695 81.6475 10.7837C81.6475 11.7045 81.3337 12.4578 80.7059 13.0438C80.092 13.6297 79.2759 13.9228 78.2575 13.9228C77.2391 13.9228 76.4159 13.6297 75.7882 13.0438C75.1743 12.4578 74.8675 11.7045 74.8675 10.7837ZM99.016 22.3142C98.1937 22.2026 97.4678 22.1468 96.8401 22.1468C94.5517 22.1468 93.0526 22.9211 92.341 24.4695V39.2854H86.2932V16.6431H92.0062L92.1732 19.3427C93.3875 17.2639 95.0687 16.2246 97.2169 16.2246C97.8866 16.2246 98.5142 16.3153 99.1 16.4967L99.016 22.3142ZM108.329 39.2854H102.26V7.14258H108.329V39.2854ZM121.784 30.7266L125.97 16.6431H132.457L123.354 42.8011L122.852 43.9938C121.498 46.9514 119.266 48.4303 116.155 48.4303C115.276 48.4303 114.383 48.2978 113.477 48.0327V43.4498L114.397 43.4707C115.541 43.4707 116.392 43.2963 116.95 42.9476C117.522 42.5987 117.969 42.0198 118.289 41.2106L119.001 39.3482L111.07 16.6431H117.579L121.784 30.7266Z" fill="#525050"/>
</svg>
