<svg width="250" height="94" viewBox="0 0 250 94" fill="none" xmlns="http://www.w3.org/2000/svg">
<path d="M21.5676 48.6574H2.20212C0.990923 48.6574 0.838867 47.3518 0.838867 46.1406V42.7849C0.838867 41.5736 0.990923 39.8486 2.20212 39.8486H21.7739C23.9624 39.8486 26.0132 38.3485 26.3711 36.1876C26.8253 33.4349 24.7057 31.0399 22.0218 31.0399C20.0812 31.0399 18.4295 32.3062 17.8377 34.0542C17.5486 34.9213 16.009 36.1876 15.1006 36.1876H10.906C9.55714 36.1876 8.79491 34.233 9.04264 32.9117C10.2263 26.8421 15.5941 22.2312 22.008 22.2312C29.8671 22.2312 36.1432 29.1268 35.111 37.1785C34.2714 43.8401 28.2704 48.6574 21.5676 48.6574ZM2.20212 53.0617H48.4479C56.6649 53.0617 63.1474 60.6042 61.3582 69.124C60.3122 74.1063 56.2795 78.1391 51.2969 79.185C43.6719 80.7817 36.8315 75.758 35.4827 68.7936C35.2211 67.4723 36.4166 65.5315 37.7516 65.5315H42.1718C43.0939 65.5315 43.9748 66.7978 44.2639 67.6649C44.8557 69.4129 46.5073 70.6792 48.4479 70.6792C51.1181 70.6792 53.2515 68.2844 52.7973 65.5315C52.4394 63.3708 50.4023 61.8704 48.2001 61.8704H2.20212C0.990923 61.8704 0.838867 60.7746 0.838867 59.5634V55.3688C0.838867 54.1575 0.990923 53.0617 2.20212 53.0617ZM55.0545 48.6574H33.557C36.2134 46.3726 39.6667 43.3171 40.5751 39.8486H55.0545C58.7018 39.8486 61.661 36.8894 61.661 33.2421C61.661 29.5948 58.7018 26.6355 55.0545 26.6355C52.5907 26.6355 50.4713 27.9981 49.3288 29.9939C48.9296 30.682 46.9392 31.8788 46.1409 31.8788H42.1718C40.6714 31.8788 40.0659 29.5535 40.5751 28.1359C43.0251 21.1715 50.2785 16.4642 58.3854 18.1847C64.0558 19.3822 68.7218 23.9104 70.0431 29.5673C72.3966 39.6423 64.7578 48.6574 55.0545 48.6574Z" fill="#FD5C63"/>
<path d="M119.652 62.0282H98.9671L95.0346 73.8255H82.4901L103.804 16.5688H114.736L136.168 73.8255H123.624L119.652 62.0282ZM102.152 52.4722H116.467L109.27 31.0403L102.152 52.4722ZM152.763 73.8255H141.359V31.2762H152.763V73.8255ZM140.691 20.2653C140.691 18.5613 141.254 17.1588 142.382 16.0576C143.535 14.9565 145.095 14.406 147.061 14.406C149.001 14.406 150.548 14.9565 151.702 16.0576C152.855 17.1588 153.432 18.5613 153.432 20.2653C153.432 21.9957 152.842 23.4113 151.662 24.5124C150.509 25.6135 148.975 26.1641 147.061 26.1641C145.147 26.1641 143.6 25.6135 142.421 24.5124C141.267 23.4113 140.691 21.9957 140.691 20.2653ZM186.07 41.9333C184.525 41.7235 183.161 41.6187 181.982 41.6187C177.681 41.6187 174.864 43.0737 173.527 45.9836V73.8255H162.162V31.2762H172.898L173.211 36.3492C175.493 32.4428 178.653 30.4898 182.69 30.4898C183.948 30.4898 185.128 30.6601 186.228 31.001L186.07 41.9333ZM203.57 73.8255H192.166V13.4229H203.57V73.8255ZM228.856 57.7418L236.721 31.2762H248.913L231.805 80.4321L230.862 82.6735C228.319 88.2314 224.124 91.0104 218.279 91.0104C216.626 91.0104 214.948 90.7614 213.245 90.2633V81.6512L214.975 81.6905C217.124 81.6905 218.723 81.3628 219.772 80.7074C220.847 80.0519 221.686 78.964 222.289 77.4433L223.626 73.9435L208.721 31.2762H220.953L228.856 57.7418Z" fill="#525050"/>
</svg>
