<svg width="32" height="32" viewBox="0 0 32 32" fill="none" xmlns="http://www.w3.org/2000/svg">
<path d="M12.7867 6.12014C13.0965 5.80856 13.4784 5.57833 13.8986 5.44993C14.3187 5.32152 14.7641 5.29892 15.1951 5.38413C15.6261 5.46933 16.0294 5.65971 16.3691 5.93833C16.7088 6.21696 16.9744 6.57519 17.1423 6.9812C17.3101 7.3872 17.3751 7.82839 17.3314 8.26556C17.2876 8.70272 17.1366 9.12231 16.8916 9.48702C16.6467 9.85173 16.3154 10.1503 15.9272 10.3561C15.5391 10.5619 15.1061 10.6687 14.6667 10.6668H2.66675M16.7867 25.8801C17.0965 26.1917 17.4784 26.4219 17.8986 26.5504C18.3187 26.6788 18.7641 26.7014 19.1951 26.6162C19.6261 26.5309 20.0294 26.3406 20.3691 26.0619C20.7088 25.7833 20.9744 25.4251 21.1423 25.0191C21.3101 24.6131 21.3751 24.1719 21.3314 23.7347C21.2876 23.2976 21.1366 22.878 20.8916 22.5133C20.6467 22.1485 20.3154 21.85 19.9272 21.6442C19.5391 21.4384 19.1061 21.3316 18.6667 21.3335H2.66675M23.6401 10.3068C24.0279 9.91999 24.505 9.63469 25.0293 9.47616C25.5536 9.31762 26.1089 9.29073 26.6461 9.39785C27.1832 9.50498 27.6857 9.74283 28.1091 10.0904C28.5324 10.4379 28.8636 10.8844 29.0734 11.3904C29.2831 11.8964 29.3649 12.4463 29.3116 12.9914C29.2583 13.5365 29.0714 14.0601 28.7676 14.5159C28.4637 14.9716 28.0523 15.3455 27.5696 15.6043C27.0869 15.8632 26.5478 15.9992 26.0001 16.0001H2.66675" stroke="#6B81B9" stroke-linecap="round" stroke-linejoin="round"/>
</svg>
